{"asset":{"version":"2.0","generator":"babylon.js glTF exporter for Maya 2018 v20190918.9"},"scene":0,"scenes":[{"nodes":[0,10],"extensions":{}}],"nodes":[{"children":[1],"translation":[0.0,0.0,0.0],"rotation":[0.0,0.0,0.0,1.0],"scale":[1.0,1.0,1.0],"name":"G_cosmology1"},{"children":[2,8,9],"translation":[26.50998,5.29352045,-22.188282],"rotation":[0.0,0.0,0.0,1.0],"scale":[1.19281924,1.19281924,1.19281924],"name":"G_bodhiTree_01"},{"children":[3,4,5,6,7],"translation":[0.0,0.0,0.0],"rotation":[0.0,0.0,0.0,1.0],"scale":[1.0,1.0,1.0],"name":"Bodhi_tree_big"},{"mesh":0,"translation":[29.72697,-4.862509,-1.39553189],"rotation":[-0.0878965,-0.4936428,-0.100729756,0.859328],"scale":[1.0,1.0,1.0],"name":"polySurface612"},{"mesh":1,"translation":[0.0,0.0,0.0],"rotation":[0.0,0.0,0.0,1.0],"scale":[1.0,1.0,1.0],"name":"polySurface617"},{"mesh":2,"translation":[0.0,0.0,0.0],"rotation":[0.0,0.0,0.0,1.0],"scale":[1.0,1.0,1.0],"name":"polySurface619"},{"mesh":3,"translation":[10.099535,13.018856,-3.56091738],"rotation":[0.0314638652,-0.148837179,-0.131887674,0.97952193],"scale":[0.8217429,0.8217429,0.8217429],"name":"polySurface620"},{"mesh":4,"translation":[-42.62825,-55.5787926,-41.08008],"rotation":[0.0,0.0,0.0,1.0],"scale":[2.52828979,2.52828979,2.52828979],"name":"bodhi_tree_swirls"},{"mesh":5,"translation":[0.0,0.0,0.0],"rotation":[0.0,0.0,0.0,1.0],"scale":[1.0,1.0,1.0],"name":"bodhi_Tree_petals"},{"mesh":6,"translation":[0.0,0.0,0.0],"rotation":[0.0,0.0,0.0,1.0],"scale":[1.0,1.0,1.0],"name":"bodhi_Tree_dropplets"},{"translation":[0.0,0.0,0.0],"rotation":[0.0,0.0,0.0,1.0],"scale":[1.0,1.0,1.0],"name":"Default light"}],"meshes":[{"primitives":[{"attributes":{"POSITION":1,"TANGENT":2,"NORMAL":3,"TEXCOORD_0":4},"indices":0,"mode":4,"material":0}],"name":"polySurface612"},{"primitives":[{"attributes":{"POSITION":6,"TANGENT":7,"NORMAL":8,"TEXCOORD_0":9,"TEXCOORD_1":10},"indices":5,"mode":4,"material":0}],"name":"polySurface617"},{"primitives":[{"attributes":{"POSITION":12,"TANGENT":13,"NORMAL":14,"TEXCOORD_0":15,"TEXCOORD_1":16},"indices":11,"mode":4,"material":0}],"name":"polySurface619"},{"primitives":[{"attributes":{"POSITION":18,"TANGENT":19,"NORMAL":20,"TEXCOORD_0":21},"indices":17,"mode":4,"material":0}],"name":"polySurface620"},{"primitives":[{"attributes":{"POSITION":23,"TANGENT":24,"NORMAL":25,"COLOR_0":26,"TEXCOORD_0":27,"TEXCOORD_1":28},"indices":22,"mode":4,"material":0}],"name":"bodhi_tree_swirls"},{"primitives":[{"attributes":{"POSITION":30,"TANGENT":31,"NORMAL":32,"TEXCOORD_0":33,"TEXCOORD_1":34},"indices":29,"mode":4,"material":0}],"name":"bodhi_Tree_petals"},{"primitives":[{"attributes":{"POSITION":36,"TANGENT":37,"NORMAL":38,"TEXCOORD_0":39,"TEXCOORD_1":40},"indices":35,"mode":4,"material":0}],"name":"bodhi_Tree_dropplets"}],"accessors":[{"bufferView":0,"componentType":5123,"count":189,"type":"SCALAR","name":"accessorIndices"},{"bufferView":1,"componentType":5126,"count":57,"max":[32.5491066,40.41318,34.76381],"min":[20.2753048,32.9921455,27.4548378],"type":"VEC3","name":"accessorPositions"},{"bufferView":2,"componentType":5126,"count":57,"type":"VEC4","name":"accessorTangents"},{"bufferView":1,"byteOffset":684,"componentType":5126,"count":57,"type":"VEC3","name":"accessorNormals"},{"bufferView":3,"componentType":5126,"count":57,"type":"VEC2","name":"accessorUVs"},{"bufferView":0,"byteOffset":380,"componentType":5123,"count":3126,"type":"SCALAR","name":"accessorIndices"},{"bufferView":1,"byteOffset":1368,"componentType":5126,"count":886,"max":[41.02146,62.7821579,43.9432],"min":[8.732851,41.9834137,17.1015968],"type":"VEC3","name":"accessorPositions"},{"bufferView":2,"byteOffset":912,"componentType":5126,"count":886,"type":"VEC4","name":"accessorTangents"},{"bufferView":1,"byteOffset":12000,"componentType":5126,"count":886,"type":"VEC3","name":"accessorNormals"},{"bufferView":3,"byteOffset":456,"componentType":5126,"count":886,"type":"VEC2","name":"accessorUVs"},{"bufferView":3,"byteOffset":7544,"componentType":5126,"count":886,"type":"VEC2","name":"accessorUV2s"},{"bufferView":0,"byteOffset":6632,"componentType":5123,"count":786,"type":"SCALAR","name":"accessorIndices"},{"bufferView":1,"byteOffset":22632,"componentType":5126,"count":222,"max":[32.02128,43.7022476,34.3960457],"min":[13.4155407,31.25592,21.7584267],"type":"VEC3","name":"accessorPositions"},{"bufferView":2,"byteOffset":15088,"componentType":5126,"count":222,"type":"VEC4","name":"accessorTangents"},{"bufferView":1,"byteOffset":25296,"componentType":5126,"count":222,"type":"VEC3","name":"accessorNormals"},{"bufferView":3,"byteOffset":14632,"componentType":5126,"count":222,"type":"VEC2","name":"accessorUVs"},{"bufferView":3,"byteOffset":16408,"componentType":5126,"count":222,"type":"VEC2","name":"accessorUV2s"},{"bufferView":0,"byteOffset":8204,"componentType":5123,"count":189,"type":"SCALAR","name":"accessorIndices"},{"bufferView":1,"byteOffset":27960,"componentType":5126,"count":57,"max":[32.5491066,40.41318,34.76381],"min":[20.2753048,32.9921455,27.4548378],"type":"VEC3","name":"accessorPositions"},{"bufferView":2,"byteOffset":18640,"componentType":5126,"count":57,"type":"VEC4","name":"accessorTangents"},{"bufferView":1,"byteOffset":28644,"componentType":5126,"count":57,"type":"VEC3","name":"accessorNormals"},{"bufferView":3,"byteOffset":18184,"componentType":5126,"count":57,"type":"VEC2","name":"accessorUVs"},{"bufferView":0,"byteOffset":8584,"componentType":5123,"count":1206,"type":"SCALAR","name":"accessorIndices"},{"bufferView":1,"byteOffset":29328,"componentType":5126,"count":266,"max":[29.83625,47.0562553,31.98384],"min":[24.2878113,38.8720436,25.8140011],"type":"VEC3","name":"accessorPositions"},{"bufferView":2,"byteOffset":19552,"componentType":5126,"count":266,"type":"VEC4","name":"accessorTangents"},{"bufferView":1,"byteOffset":32520,"componentType":5126,"count":266,"type":"VEC3","name":"accessorNormals"},{"bufferView":2,"byteOffset":23808,"componentType":5126,"count":266,"type":"VEC4","name":"accessorColors"},{"bufferView":3,"byteOffset":18640,"componentType":5126,"count":266,"type":"VEC2","name":"accessorUVs"},{"bufferView":3,"byteOffset":20768,"componentType":5126,"count":266,"type":"VEC2","name":"accessorUV2s"},{"bufferView":0,"byteOffset":10996,"componentType":5123,"count":4788,"type":"SCALAR","name":"accessorIndices"},{"bufferView":1,"byteOffset":35712,"componentType":5126,"count":1503,"max":[46.5015755,71.7825851,50.4136772],"min":[2.441803,39.98403,12.6928205],"type":"VEC3","name":"accessorPositions"},{"bufferView":2,"byteOffset":28064,"componentType":5126,"count":1503,"type":"VEC4","name":"accessorTangents"},{"bufferView":1,"byteOffset":53748,"componentType":5126,"count":1503,"type":"VEC3","name":"accessorNormals"},{"bufferView":3,"byteOffset":22896,"componentType":5126,"count":1503,"type":"VEC2","name":"accessorUVs"},{"bufferView":3,"byteOffset":34920,"componentType":5126,"count":1503,"type":"VEC2","name":"accessorUV2s"},{"bufferView":0,"byteOffset":20572,"componentType":5123,"count":2784,"type":"SCALAR","name":"accessorIndices"},{"bufferView":1,"byteOffset":71784,"componentType":5126,"count":704,"max":[40.3456421,60.67218,42.02417],"min":[9.072144,8.159225,17.3875732],"type":"VEC3","name":"accessorPositions"},{"bufferView":2,"byteOffset":52112,"componentType":5126,"count":704,"type":"VEC4","name":"accessorTangents"},{"bufferView":1,"byteOffset":80232,"componentType":5126,"count":704,"type":"VEC3","name":"accessorNormals"},{"bufferView":3,"byteOffset":46944,"componentType":5126,"count":704,"type":"VEC2","name":"accessorUVs"},{"bufferView":3,"byteOffset":52576,"componentType":5126,"count":704,"type":"VEC2","name":"accessorUV2s"}],"bufferViews":[{"buffer":0,"byteLength":26140,"name":"bufferViewScalar"},{"buffer":0,"byteOffset":26140,"byteLength":88680,"byteStride":12,"name":"bufferViewFloatVec3"},{"buffer":0,"byteOffset":114820,"byteLength":63376,"byteStride":16,"name":"bufferViewFloatVec4"},{"buffer":0,"byteOffset":178196,"byteLength":58208,"byteStride":8,"name":"bufferViewFloatVec2"}],"buffers":[{"uri":"bodhiTree_01.bin","byteLength":236404}],"materials":[{"pbrMetallicRoughness":{"baseColorFactor":[0.8,0.8,0.8,1.0],"baseColorTexture":{"index":0,"texCoord":0},"metallicFactor":0.0,"roughnessFactor":0.30625},"emissiveFactor":[0.0,0.0,0.0],"alphaMode":"OPAQUE","name":"Main_mat"}],"textures":[{"sampler":0,"source":0,"name":"colorScheme_gradient.png"}],"images":[{"uri":"colorScheme_gradient.png"}],"samplers":[{"magFilter":9729,"minFilter":9987,"wrapS":10497,"wrapT":10497}]}