{"asset":{"version":"2.0","generator":"babylon.js glTF exporter for Maya 2018 v20190918.9"},"scene":0,"scenes":[{"nodes":[0,2],"extensions":{}}],"nodes":[{"children":[1],"translation":[0.0,0.0,0.0],"rotation":[0.0,0.0,0.0,1.0],"scale":[1.0,1.0,1.0],"name":"group192"},{"mesh":0,"translation":[0.0,0.0,0.0],"rotation":[0.0,0.0,0.0,1.0],"scale":[1.0,1.0,1.0],"name":"bright_floor"},{"translation":[0.0,0.0,0.0],"rotation":[0.0,0.0,0.0,1.0],"scale":[1.0,1.0,1.0],"name":"Default light"}],"meshes":[{"primitives":[{"attributes":{"POSITION":1,"TANGENT":2,"NORMAL":3,"TEXCOORD_0":4},"indices":0,"mode":4,"material":0}],"name":"bright_floor"}],"accessors":[{"bufferView":0,"componentType":5123,"count":150,"type":"SCALAR","name":"accessorIndices"},{"bufferView":1,"componentType":5126,"count":36,"max":[50.0,34.8467941,50.0],"min":[-50.0,34.8467941,-50.0],"type":"VEC3","name":"accessorPositions"},{"bufferView":2,"componentType":5126,"count":36,"type":"VEC4","name":"accessorTangents"},{"bufferView":1,"byteOffset":432,"componentType":5126,"count":36,"type":"VEC3","name":"accessorNormals"},{"bufferView":3,"componentType":5126,"count":36,"type":"VEC2","name":"accessorUVs"}],"bufferViews":[{"buffer":0,"byteLength":300,"name":"bufferViewScalar"},{"buffer":0,"byteOffset":300,"byteLength":864,"byteStride":12,"name":"bufferViewFloatVec3"},{"buffer":0,"byteOffset":1164,"byteLength":576,"byteStride":16,"name":"bufferViewFloatVec4"},{"buffer":0,"byteOffset":1740,"byteLength":288,"byteStride":8,"name":"bufferViewFloatVec2"}],"buffers":[{"uri":"brightFloor_01.bin","byteLength":2028}],"materials":[{"pbrMetallicRoughness":{"baseColorFactor":[0.8,0.8,0.8,1.0],"baseColorTexture":{"index":0,"texCoord":0},"metallicFactor":0.0,"roughnessFactor":0.30625},"emissiveFactor":[0.0,0.0,0.0],"alphaMode":"OPAQUE","name":"Main_mat"}],"textures":[{"sampler":0,"source":0,"name":"colorScheme_gradient.png"}],"images":[{"uri":"colorScheme_gradient.png"}],"samplers":[{"magFilter":9729,"minFilter":9987,"wrapS":10497,"wrapT":10497}]}