{"asset":{"version":"2.0","generator":"babylon.js glTF exporter for Maya 2018 v20190918.9"},"scene":0,"scenes":[{"nodes":[0,18],"extensions":{}}],"nodes":[{"children":[1],"translation":[0.0,0.0,0.0],"rotation":[0.0,0.0,0.0,1.0],"scale":[1.0,1.0,1.0],"name":"G_cosmology1"},{"children":[2,3,4,5,6,7,8,9,10,11,12,13,14,15,16,17],"translation":[0.0,0.0,0.0],"rotation":[0.0,0.0,0.0,1.0],"scale":[1.0,1.0,1.0],"name":"G_brightFlowers"},{"mesh":0,"translation":[-4.217621,6.46055937,-32.9472771],"rotation":[0.0,0.0,0.0,1.0],"scale":[1.0,1.0,1.0],"name":"Lotus_Flower_Big_001"},{"mesh":1,"translation":[0.0,0.0,0.0],"rotation":[0.0,0.0,0.0,1.0],"scale":[1.0,1.0,1.0],"name":"bigCurtain_FLower_015"},{"mesh":2,"translation":[-27.8476276,41.5440063,33.7626457],"rotation":[0.03240835,0.7599764,0.0558634363,0.646734],"scale":[1.96446049,5.18634558,1.96446049],"name":"pCylinder216"},{"mesh":3,"translation":[-13.8555908,41.2251434,38.8825035],"rotation":[0.0,0.0,0.0,1.0],"scale":[1.96446049,5.18634558,1.96446049],"name":"pCylinder215"},{"mesh":4,"translation":[54.0199127,-54.58345,157.805008],"rotation":[0.0,0.9830698,0.0,-0.183231518],"scale":[2.55222845,2.55222845,2.55222845],"name":"polySurface297"},{"mesh":5,"translation":[-147.910355,-145.916046,268.358429],"rotation":[-0.0328615457,-0.909940064,0.0566036738,-0.409542739],"scale":[6.04531956,6.04531956,6.04531956],"name":"polySurface292"},{"mesh":6,"translation":[54.0199127,-54.58345,157.805008],"rotation":[0.0,0.9830698,0.0,-0.183231518],"scale":[2.55222845,2.55222845,2.55222845],"name":"polySurface512"},{"mesh":7,"translation":[-147.910355,-145.916046,268.358429],"rotation":[-0.0328615457,-0.909940064,0.0566036738,-0.409542739],"scale":[6.04531956,6.04531956,6.04531956],"name":"polySurface513"},{"mesh":8,"translation":[-147.910355,-145.916046,268.358429],"rotation":[-0.0328615457,-0.909940064,0.0566036738,-0.409542739],"scale":[6.04531956,6.04531956,6.04531956],"name":"polySurface514"},{"mesh":9,"translation":[32.6789322,48.35897,-9.304945],"rotation":[-0.0325617231,-0.7281963,-0.326522768,0.6017082],"scale":[5.713985,5.713985,5.713985],"name":"pCylinder217"},{"mesh":10,"translation":[31.2267,62.048317,-7.236381],"rotation":[0.0,0.94633013,0.0,-0.323201537],"scale":[5.84759426,5.84759426,5.84759426],"name":"pCylinder212"},{"mesh":11,"translation":[37.3828278,52.19787,-14.5976477],"rotation":[0.0,-0.6660016,0.0,0.7459503],"scale":[6.71626329,6.71626329,6.71626329],"name":"pCylinder210"},{"mesh":12,"translation":[31.717968,46.6811943,-19.75059],"rotation":[-0.001294259,-0.363779575,-0.0356434025,0.930802],"scale":[5.713985,5.713985,5.713985],"name":"pCylinder211"},{"mesh":13,"translation":[0.0,0.0,0.0],"rotation":[0.0,0.0,0.0,1.0],"scale":[1.0,1.0,1.0],"name":"pCylinder205"},{"mesh":14,"translation":[0.0,0.0,0.0],"rotation":[0.0,0.0,0.0,1.0],"scale":[1.0,1.0,1.0],"name":"pCube105"},{"mesh":15,"translation":[0.0,0.0,-14.9811335],"rotation":[0.0,0.0,0.0,1.0],"scale":[1.0,1.0,1.0],"name":"pCube106"},{"translation":[0.0,0.0,0.0],"rotation":[0.0,0.0,0.0,1.0],"scale":[1.0,1.0,1.0],"name":"Default light"}],"meshes":[{"primitives":[{"attributes":{"POSITION":1,"TANGENT":2,"NORMAL":3,"TEXCOORD_0":4},"indices":0,"mode":4,"material":0}],"name":"Lotus_Flower_Big_001"},{"primitives":[{"attributes":{"POSITION":6,"TANGENT":7,"NORMAL":8,"TEXCOORD_0":9},"indices":5,"mode":4,"material":0}],"name":"bigCurtain_FLower_015"},{"primitives":[{"attributes":{"POSITION":11,"TANGENT":12,"NORMAL":13,"TEXCOORD_0":14},"indices":10,"mode":4,"material":0}],"name":"pCylinder216"},{"primitives":[{"attributes":{"POSITION":16,"TANGENT":17,"NORMAL":18,"TEXCOORD_0":19},"indices":15,"mode":4,"material":0}],"name":"pCylinder215"},{"primitives":[{"attributes":{"POSITION":21,"TANGENT":22,"NORMAL":23,"TEXCOORD_0":24,"TEXCOORD_1":25},"indices":20,"mode":4,"material":0}],"name":"polySurface297"},{"primitives":[{"attributes":{"POSITION":27,"TANGENT":28,"NORMAL":29,"TEXCOORD_0":30,"TEXCOORD_1":31},"indices":26,"mode":4,"material":0}],"name":"polySurface292"},{"primitives":[{"attributes":{"POSITION":33,"TANGENT":34,"NORMAL":35,"TEXCOORD_0":36,"TEXCOORD_1":37},"indices":32,"mode":4,"material":0}],"name":"polySurface512"},{"primitives":[{"attributes":{"POSITION":39,"TANGENT":40,"NORMAL":41,"TEXCOORD_0":42,"TEXCOORD_1":43},"indices":38,"mode":4,"material":0}],"name":"polySurface513"},{"primitives":[{"attributes":{"POSITION":45,"TANGENT":46,"NORMAL":47,"TEXCOORD_0":48,"TEXCOORD_1":49},"indices":44,"mode":4,"material":0}],"name":"polySurface514"},{"primitives":[{"attributes":{"POSITION":51,"TANGENT":52,"NORMAL":53,"TEXCOORD_0":54},"indices":50,"mode":4,"material":0}],"name":"pCylinder217"},{"primitives":[{"attributes":{"POSITION":56,"TANGENT":57,"NORMAL":58,"TEXCOORD_0":59},"indices":55,"mode":4,"material":0}],"name":"pCylinder212"},{"primitives":[{"attributes":{"POSITION":61,"TANGENT":62,"NORMAL":63,"TEXCOORD_0":64},"indices":60,"mode":4,"material":0}],"name":"pCylinder210"},{"primitives":[{"attributes":{"POSITION":66,"TANGENT":67,"NORMAL":68,"TEXCOORD_0":69},"indices":65,"mode":4,"material":0}],"name":"pCylinder211"},{"primitives":[{"attributes":{"POSITION":71,"TANGENT":72,"NORMAL":73,"TEXCOORD_0":74},"indices":70,"mode":4,"material":0}],"name":"pCylinder205"},{"primitives":[{"attributes":{"POSITION":76,"TANGENT":77,"NORMAL":78,"TEXCOORD_0":79},"indices":75,"mode":4,"material":0}],"name":"pCube105"},{"primitives":[{"attributes":{"POSITION":81,"TANGENT":82,"NORMAL":83,"TEXCOORD_0":84},"indices":80,"mode":4,"material":0}],"name":"pCube106"}],"accessors":[{"bufferView":0,"componentType":5123,"count":8250,"type":"SCALAR","name":"accessorIndices"},{"bufferView":1,"componentType":5126,"count":3248,"max":[28.55772,62.84697,18.0797958],"min":[8.7596035,31.8815155,-1.702568],"type":"VEC3","name":"accessorPositions"},{"bufferView":2,"componentType":5126,"count":3248,"type":"VEC4","name":"accessorTangents"},{"bufferView":1,"byteOffset":38976,"componentType":5126,"count":3248,"type":"VEC3","name":"accessorNormals"},{"bufferView":3,"componentType":5126,"count":3248,"type":"VEC2","name":"accessorUVs"},{"bufferView":0,"byteOffset":16500,"componentType":5123,"count":1800,"type":"SCALAR","name":"accessorIndices"},{"bufferView":1,"byteOffset":77952,"componentType":5126,"count":628,"max":[5.393731,47.16053,16.4932175],"min":[-11.4858532,36.380024,-0.127696991],"type":"VEC3","name":"accessorPositions"},{"bufferView":2,"byteOffset":51968,"componentType":5126,"count":628,"type":"VEC4","name":"accessorTangents"},{"bufferView":1,"byteOffset":85488,"componentType":5126,"count":628,"type":"VEC3","name":"accessorNormals"},{"bufferView":3,"byteOffset":25984,"componentType":5126,"count":628,"type":"VEC2","name":"accessorUVs"},{"bufferView":0,"byteOffset":20100,"componentType":5123,"count":804,"type":"SCALAR","name":"accessorIndices"},{"bufferView":1,"byteOffset":93024,"componentType":5126,"count":204,"max":[4.88798857,2.73628139,5.690158],"min":[-4.191013,-1.0169301,-4.624406],"type":"VEC3","name":"accessorPositions"},{"bufferView":2,"byteOffset":62016,"componentType":5126,"count":204,"type":"VEC4","name":"accessorTangents"},{"bufferView":1,"byteOffset":95472,"componentType":5126,"count":204,"type":"VEC3","name":"accessorNormals"},{"bufferView":3,"byteOffset":31008,"componentType":5126,"count":204,"type":"VEC2","name":"accessorUVs"},{"bufferView":0,"byteOffset":21708,"componentType":5123,"count":804,"type":"SCALAR","name":"accessorIndices"},{"bufferView":1,"byteOffset":97920,"componentType":5126,"count":204,"max":[4.88798857,2.73628139,5.690158],"min":[-4.191013,-1.0169301,-4.624406],"type":"VEC3","name":"accessorPositions"},{"bufferView":2,"byteOffset":65280,"componentType":5126,"count":204,"type":"VEC4","name":"accessorTangents"},{"bufferView":1,"byteOffset":100368,"componentType":5126,"count":204,"type":"VEC3","name":"accessorNormals"},{"bufferView":3,"byteOffset":32640,"componentType":5126,"count":204,"type":"VEC2","name":"accessorUVs"},{"bufferView":0,"byteOffset":23316,"componentType":5123,"count":1698,"type":"SCALAR","name":"accessorIndices"},{"bufferView":1,"byteOffset":102816,"componentType":5126,"count":379,"max":[4.704546,43.1503525,50.3601074],"min":[0.07416979,35.815937,44.0103073],"type":"VEC3","name":"accessorPositions"},{"bufferView":2,"byteOffset":68544,"componentType":5126,"count":379,"type":"VEC4","name":"accessorTangents"},{"bufferView":1,"byteOffset":107364,"componentType":5126,"count":379,"type":"VEC3","name":"accessorNormals"},{"bufferView":3,"byteOffset":34272,"componentType":5126,"count":379,"type":"VEC2","name":"accessorUVs"},{"bufferView":3,"byteOffset":37304,"componentType":5126,"count":379,"type":"VEC2","name":"accessorUV2s"},{"bufferView":0,"byteOffset":26712,"componentType":5123,"count":2247,"type":"SCALAR","name":"accessorIndices"},{"bufferView":1,"byteOffset":111912,"componentType":5126,"count":439,"max":[10.817626,38.4614258,48.98535],"min":[5.284605,34.34725,38.5473366],"type":"VEC3","name":"accessorPositions"},{"bufferView":2,"byteOffset":74608,"componentType":5126,"count":439,"type":"VEC4","name":"accessorTangents"},{"bufferView":1,"byteOffset":117180,"componentType":5126,"count":439,"type":"VEC3","name":"accessorNormals"},{"bufferView":3,"byteOffset":40336,"componentType":5126,"count":439,"type":"VEC2","name":"accessorUVs"},{"bufferView":3,"byteOffset":43848,"componentType":5126,"count":439,"type":"VEC2","name":"accessorUV2s"},{"bufferView":0,"byteOffset":31208,"componentType":5123,"count":2163,"type":"SCALAR","name":"accessorIndices"},{"bufferView":1,"byteOffset":122448,"componentType":5126,"count":439,"max":[5.81067562,39.0188,51.2308846],"min":[-0.286439538,35.23527,43.0683136],"type":"VEC3","name":"accessorPositions"},{"bufferView":2,"byteOffset":81632,"componentType":5126,"count":439,"type":"VEC4","name":"accessorTangents"},{"bufferView":1,"byteOffset":127716,"componentType":5126,"count":439,"type":"VEC3","name":"accessorNormals"},{"bufferView":3,"byteOffset":47360,"componentType":5126,"count":439,"type":"VEC2","name":"accessorUVs"},{"bufferView":3,"byteOffset":50872,"componentType":5126,"count":439,"type":"VEC2","name":"accessorUV2s"},{"bufferView":0,"byteOffset":35536,"componentType":5123,"count":2148,"type":"SCALAR","name":"accessorIndices"},{"bufferView":1,"byteOffset":132984,"componentType":5126,"count":454,"max":[9.545165,41.11719,44.1029053],"min":[6.340554,35.85877,41.75551],"type":"VEC3","name":"accessorPositions"},{"bufferView":2,"byteOffset":88656,"componentType":5126,"count":454,"type":"VEC4","name":"accessorTangents"},{"bufferView":1,"byteOffset":138432,"componentType":5126,"count":454,"type":"VEC3","name":"accessorNormals"},{"bufferView":3,"byteOffset":54384,"componentType":5126,"count":454,"type":"VEC2","name":"accessorUVs"},{"bufferView":3,"byteOffset":58016,"componentType":5126,"count":454,"type":"VEC2","name":"accessorUV2s"},{"bufferView":0,"byteOffset":39832,"componentType":5123,"count":168,"type":"SCALAR","name":"accessorIndices"},{"bufferView":1,"byteOffset":143880,"componentType":5126,"count":37,"max":[8.770995,40.2507362,43.16542],"min":[8.232909,36.4212646,42.3919678],"type":"VEC3","name":"accessorPositions"},{"bufferView":2,"byteOffset":95920,"componentType":5126,"count":37,"type":"VEC4","name":"accessorTangents"},{"bufferView":1,"byteOffset":144324,"componentType":5126,"count":37,"type":"VEC3","name":"accessorNormals"},{"bufferView":3,"byteOffset":61648,"componentType":5126,"count":37,"type":"VEC2","name":"accessorUVs"},{"bufferView":3,"byteOffset":61944,"componentType":5126,"count":37,"type":"VEC2","name":"accessorUV2s"},{"bufferView":0,"byteOffset":40168,"componentType":5123,"count":438,"type":"SCALAR","name":"accessorIndices"},{"bufferView":1,"byteOffset":144768,"componentType":5126,"count":101,"max":[1.183109,0.92834866,0.6266969],"min":[-1.18050253,-1.40203273,-0.8269675],"type":"VEC3","name":"accessorPositions"},{"bufferView":2,"byteOffset":96512,"componentType":5126,"count":101,"type":"VEC4","name":"accessorTangents"},{"bufferView":1,"byteOffset":145980,"componentType":5126,"count":101,"type":"VEC3","name":"accessorNormals"},{"bufferView":3,"byteOffset":62240,"componentType":5126,"count":101,"type":"VEC2","name":"accessorUVs"},{"bufferView":0,"byteOffset":41044,"componentType":5123,"count":438,"type":"SCALAR","name":"accessorIndices"},{"bufferView":1,"byteOffset":147192,"componentType":5126,"count":101,"max":[1.183109,0.92834866,0.6266969],"min":[-1.18050253,-1.40203273,-0.8269675],"type":"VEC3","name":"accessorPositions"},{"bufferView":2,"byteOffset":98128,"componentType":5126,"count":101,"type":"VEC4","name":"accessorTangents"},{"bufferView":1,"byteOffset":148404,"componentType":5126,"count":101,"type":"VEC3","name":"accessorNormals"},{"bufferView":3,"byteOffset":63048,"componentType":5126,"count":101,"type":"VEC2","name":"accessorUVs"},{"bufferView":0,"byteOffset":41920,"componentType":5123,"count":438,"type":"SCALAR","name":"accessorIndices"},{"bufferView":1,"byteOffset":149616,"componentType":5126,"count":101,"max":[1.183109,0.92834866,0.6266969],"min":[-1.18050253,-1.40203273,-0.8269675],"type":"VEC3","name":"accessorPositions"},{"bufferView":2,"byteOffset":99744,"componentType":5126,"count":101,"type":"VEC4","name":"accessorTangents"},{"bufferView":1,"byteOffset":150828,"componentType":5126,"count":101,"type":"VEC3","name":"accessorNormals"},{"bufferView":3,"byteOffset":63856,"componentType":5126,"count":101,"type":"VEC2","name":"accessorUVs"},{"bufferView":0,"byteOffset":42796,"componentType":5123,"count":438,"type":"SCALAR","name":"accessorIndices"},{"bufferView":1,"byteOffset":152040,"componentType":5126,"count":101,"max":[1.183109,0.92834866,0.6266969],"min":[-1.18050253,-1.40203273,-0.8269675],"type":"VEC3","name":"accessorPositions"},{"bufferView":2,"byteOffset":101360,"componentType":5126,"count":101,"type":"VEC4","name":"accessorTangents"},{"bufferView":1,"byteOffset":153252,"componentType":5126,"count":101,"type":"VEC3","name":"accessorNormals"},{"bufferView":3,"byteOffset":64664,"componentType":5126,"count":101,"type":"VEC2","name":"accessorUVs"},{"bufferView":0,"byteOffset":43672,"componentType":5123,"count":240,"type":"SCALAR","name":"accessorIndices"},{"bufferView":1,"byteOffset":154464,"componentType":5126,"count":58,"max":[52.3795052,39.5561638,-1.290993],"min":[49.6385231,36.8151741,-4.49982929],"type":"VEC3","name":"accessorPositions"},{"bufferView":2,"byteOffset":102976,"componentType":5126,"count":58,"type":"VEC4","name":"accessorTangents"},{"bufferView":1,"byteOffset":155160,"componentType":5126,"count":58,"type":"VEC3","name":"accessorNormals"},{"bufferView":3,"byteOffset":65472,"componentType":5126,"count":58,"type":"VEC2","name":"accessorUVs"},{"bufferView":0,"byteOffset":44152,"componentType":5123,"count":267,"type":"SCALAR","name":"accessorIndices"},{"bufferView":1,"byteOffset":155856,"componentType":5126,"count":201,"max":[-39.5867767,64.25376,10.3886213],"min":[-45.7634125,36.11955,4.76799965],"type":"VEC3","name":"accessorPositions"},{"bufferView":2,"byteOffset":103904,"componentType":5126,"count":201,"type":"VEC4","name":"accessorTangents"},{"bufferView":1,"byteOffset":158268,"componentType":5126,"count":201,"type":"VEC3","name":"accessorNormals"},{"bufferView":3,"byteOffset":65936,"componentType":5126,"count":201,"type":"VEC2","name":"accessorUVs"},{"bufferView":0,"byteOffset":44688,"componentType":5123,"count":267,"type":"SCALAR","name":"accessorIndices"},{"bufferView":1,"byteOffset":160680,"componentType":5126,"count":201,"max":[-39.5867767,64.25376,10.3886213],"min":[-45.7634125,36.11955,4.76799965],"type":"VEC3","name":"accessorPositions"},{"bufferView":2,"byteOffset":107120,"componentType":5126,"count":201,"type":"VEC4","name":"accessorTangents"},{"bufferView":1,"byteOffset":163092,"componentType":5126,"count":201,"type":"VEC3","name":"accessorNormals"},{"bufferView":3,"byteOffset":67544,"componentType":5126,"count":201,"type":"VEC2","name":"accessorUVs"}],"bufferViews":[{"buffer":0,"byteLength":45224,"name":"bufferViewScalar"},{"buffer":0,"byteOffset":45224,"byteLength":165504,"byteStride":12,"name":"bufferViewFloatVec3"},{"buffer":0,"byteOffset":210728,"byteLength":110336,"byteStride":16,"name":"bufferViewFloatVec4"},{"buffer":0,"byteOffset":321064,"byteLength":69152,"byteStride":8,"name":"bufferViewFloatVec2"}],"buffers":[{"uri":"brightFlowers_01.bin","byteLength":390216}],"materials":[{"pbrMetallicRoughness":{"baseColorFactor":[0.8,0.8,0.8,1.0],"baseColorTexture":{"index":0,"texCoord":0},"metallicFactor":0.0,"roughnessFactor":0.30625},"emissiveFactor":[0.0,0.0,0.0],"alphaMode":"OPAQUE","name":"Main_mat"}],"textures":[{"sampler":0,"source":0,"name":"colorScheme_gradient.png"}],"images":[{"uri":"colorScheme_gradient.png"}],"samplers":[{"magFilter":9729,"minFilter":9987,"wrapS":10497,"wrapT":10497}]}