{"asset":{"version":"2.0","generator":"babylon.js glTF exporter for Maya 2018 v20190918.9"},"scene":0,"scenes":[{"nodes":[0,24],"extensions":{}}],"nodes":[{"children":[1],"translation":[0.0,0.0,0.0],"rotation":[0.0,0.0,0.0,1.0],"scale":[1.0,1.0,1.0],"name":"G_cosmology1"},{"children":[2,4,23],"translation":[0.0,0.0,0.0],"rotation":[0.0,0.0,0.0,1.0],"scale":[1.0,1.0,1.0],"name":"ShinyStuff"},{"children":[3],"translation":[45.0256538,33.7727547,-21.1181374],"rotation":[-0.005718273,0.7927607,-0.007438088,0.6094607],"scale":[0.0270438511,0.0270438511,0.0270438511],"name":"group207"},{"mesh":0,"translation":[0.5271048,0.0,0.0],"rotation":[0.0,0.0,0.0,1.0],"scale":[1.0,1.0,1.0],"name":"extrudedSurface85"},{"children":[5,6,7,8,9,10,11,12,13,14,15,16,17,18,19,20,21,22],"translation":[0.0,0.0,0.0],"rotation":[0.0,0.0,0.0,1.0],"scale":[1.0,1.0,1.0],"name":"pasted__group23"},{"mesh":1,"translation":[-8.316618,-0.10565386,-14.7773085],"rotation":[-0.0205601845,0.0545610934,-0.0448542759,0.997290552],"scale":[1.0,1.0,1.0],"name":"pasted__pSphere24"},{"mesh":2,"translation":[20.75762,1.65581369,35.0847435],"rotation":[0.0531950556,0.621713638,-0.07095831,0.7782078],"scale":[1.0,1.0,1.0],"name":"pasted__pSphere21"},{"mesh":3,"translation":[-11.3961105,0.0566439331,-17.3600655],"rotation":[-0.03732309,0.03080831,-0.03858924,0.9980825],"scale":[1.0,1.0,1.0],"name":"pasted__pPlane49"},{"mesh":4,"translation":[3.532981,-15.5584192,-33.7031822],"rotation":[0.05510123,-0.0516916364,0.130669236,0.988543034],"scale":[1.0,1.0,1.0],"name":"pasted__polySurface43"},{"mesh":5,"translation":[65.9587555,90.29493,29.1498241],"rotation":[-0.6202799,0.653188765,-0.1992561,0.385868222],"scale":[1.0,1.0,1.0],"name":"pasted__pCylinder122"},{"mesh":6,"translation":[-41.6689034,-15.76403,-20.922884],"rotation":[0.0,0.0,0.0,1.0],"scale":[1.50596321,1.50596321,1.50596321],"name":"pasted__pPlane22"},{"mesh":7,"translation":[-82.92796,-23.2191734,3.72242737],"rotation":[-0.07048442,0.0445751175,-0.215122461,0.9730197],"scale":[1.70114851,3.1667912,1.70114851],"name":"pasted__pCylinder120"},{"mesh":8,"translation":[-10.596549,3.28325319,-18.42874],"rotation":[0.0,0.0,0.0,1.0],"scale":[1.0,1.0,1.0],"name":"pasted__pPlatonic31"},{"mesh":9,"translation":[-6.45931244,36.10186,-38.7222481],"rotation":[0.0340145,-0.122468755,-0.239479721,0.9625455],"scale":[0.8215989,0.8215989,0.8215989],"name":"pasted__pPlane40"},{"mesh":10,"translation":[-31.9759083,52.48407,-29.84856],"rotation":[-0.0358703,-0.0633728653,-0.33790648,0.938358366],"scale":[1.17047548,1.17047548,1.17047548],"name":"pasted__pCylinder117"},{"mesh":11,"translation":[-12.1267271,74.5200958,-12.34828],"rotation":[-0.5061641,0.03335713,-0.4144895,0.755568445],"scale":[1.0,1.0,1.0],"name":"pasted__pPlatonic29"},{"mesh":12,"translation":[9.084953,-5.69874954,-58.2378731],"rotation":[0.216197744,-0.146429911,0.146129578,0.95418185],"scale":[1.0,1.0,1.0],"name":"pasted__pCylinder118"},{"mesh":13,"translation":[30.418066,6.567587,47.1590424],"rotation":[0.0644187257,0.6001961,-0.09222347,0.791902542],"scale":[1.0,1.0,1.0],"name":"pasted__pSphere10"},{"mesh":14,"translation":[-16.1789055,33.2497673,0.430109],"rotation":[-0.109650895,0.09985721,-0.217875168,0.964642763],"scale":[1.0,1.0,1.0],"name":"pasted__pSphere8"},{"mesh":15,"translation":[-10.9011269,12.1093626,-11.5550165],"rotation":[0.00750296935,-0.0465011932,-0.0936949253,0.9944861],"scale":[1.0,1.0,1.0],"name":"pasted__pSphere7"},{"mesh":16,"translation":[3.0322628,19.1572533,-2.56731319],"rotation":[-0.0307410024,-0.02511667,-0.104360677,0.993746936],"scale":[0.7687585,0.7687585,0.7687585],"name":"pasted__pCylinder136"},{"mesh":17,"translation":[21.8051987,23.6319733,38.72164],"rotation":[-0.130062178,0.5160498,-0.105952345,0.8399706],"scale":[1.0,1.0,1.0],"name":"pasted__pPlatonic32"},{"mesh":18,"translation":[4.91481,-10.5300827,62.41277],"rotation":[0.0186326113,0.4842963,-0.037616048,0.8738964],"scale":[1.42706013,1.42706013,1.42706013],"name":"pasted__group21"},{"mesh":19,"translation":[0.0,0.0,0.0],"rotation":[0.0,0.0,0.0,1.0],"scale":[1.0,1.0,1.0],"name":"extrudedSurface84"},{"translation":[0.0,0.0,0.0],"rotation":[0.0,0.0,0.0,1.0],"scale":[1.0,1.0,1.0],"name":"Default light"}],"meshes":[{"primitives":[{"attributes":{"POSITION":1,"TANGENT":2,"NORMAL":3,"TEXCOORD_0":4,"TEXCOORD_1":5},"indices":0,"mode":4,"material":0}],"name":"extrudedSurface85"},{"primitives":[{"attributes":{"POSITION":7,"TANGENT":8,"NORMAL":9,"TEXCOORD_0":10,"TEXCOORD_1":11},"indices":6,"mode":4,"material":0}],"name":"pasted__pSphere24"},{"primitives":[{"attributes":{"POSITION":13,"TANGENT":14,"NORMAL":15,"TEXCOORD_0":16,"TEXCOORD_1":17},"indices":12,"mode":4,"material":0}],"name":"pasted__pSphere21"},{"primitives":[{"attributes":{"POSITION":19,"TANGENT":20,"NORMAL":21,"TEXCOORD_0":22,"TEXCOORD_1":23},"indices":18,"mode":4,"material":0}],"name":"pasted__pPlane49"},{"primitives":[{"attributes":{"POSITION":25,"TANGENT":26,"NORMAL":27,"TEXCOORD_0":28,"TEXCOORD_1":29},"indices":24,"mode":4,"material":0}],"name":"pasted__polySurface43"},{"primitives":[{"attributes":{"POSITION":31,"TANGENT":32,"NORMAL":33,"TEXCOORD_0":34,"TEXCOORD_1":35},"indices":30,"mode":4,"material":0}],"name":"pasted__pCylinder122"},{"primitives":[{"attributes":{"POSITION":37,"TANGENT":38,"NORMAL":39,"TEXCOORD_0":40,"TEXCOORD_1":41},"indices":36,"mode":4,"material":0}],"name":"pasted__pPlane22"},{"primitives":[{"attributes":{"POSITION":43,"TANGENT":44,"NORMAL":45,"TEXCOORD_0":46,"TEXCOORD_1":47},"indices":42,"mode":4,"material":0}],"name":"pasted__pCylinder120"},{"primitives":[{"attributes":{"POSITION":49,"TANGENT":50,"NORMAL":51,"TEXCOORD_0":52,"TEXCOORD_1":53},"indices":48,"mode":4,"material":0}],"name":"pasted__pPlatonic31"},{"primitives":[{"attributes":{"POSITION":55,"TANGENT":56,"NORMAL":57,"TEXCOORD_0":58,"TEXCOORD_1":59},"indices":54,"mode":4,"material":0}],"name":"pasted__pPlane40"},{"primitives":[{"attributes":{"POSITION":61,"TANGENT":62,"NORMAL":63,"TEXCOORD_0":64,"TEXCOORD_1":65},"indices":60,"mode":4,"material":0}],"name":"pasted__pCylinder117"},{"primitives":[{"attributes":{"POSITION":67,"TANGENT":68,"NORMAL":69,"TEXCOORD_0":70,"TEXCOORD_1":71},"indices":66,"mode":4,"material":0}],"name":"pasted__pPlatonic29"},{"primitives":[{"attributes":{"POSITION":73,"TANGENT":74,"NORMAL":75,"TEXCOORD_0":76,"TEXCOORD_1":77},"indices":72,"mode":4,"material":0}],"name":"pasted__pCylinder118"},{"primitives":[{"attributes":{"POSITION":79,"TANGENT":80,"NORMAL":81,"TEXCOORD_0":82,"TEXCOORD_1":83},"indices":78,"mode":4,"material":0}],"name":"pasted__pSphere10"},{"primitives":[{"attributes":{"POSITION":85,"TANGENT":86,"NORMAL":87,"TEXCOORD_0":88,"TEXCOORD_1":89},"indices":84,"mode":4,"material":0}],"name":"pasted__pSphere8"},{"primitives":[{"attributes":{"POSITION":91,"TANGENT":92,"NORMAL":93,"TEXCOORD_0":94,"TEXCOORD_1":95},"indices":90,"mode":4,"material":0}],"name":"pasted__pSphere7"},{"primitives":[{"attributes":{"POSITION":97,"TANGENT":98,"NORMAL":99,"TEXCOORD_0":100,"TEXCOORD_1":101},"indices":96,"mode":4,"material":0}],"name":"pasted__pCylinder136"},{"primitives":[{"attributes":{"POSITION":103,"TANGENT":104,"NORMAL":105,"TEXCOORD_0":106,"TEXCOORD_1":107},"indices":102,"mode":4,"material":0}],"name":"pasted__pPlatonic32"},{"primitives":[{"attributes":{"POSITION":109,"TANGENT":110,"NORMAL":111,"TEXCOORD_0":112,"TEXCOORD_1":113},"indices":108,"mode":4,"material":0}],"name":"pasted__group21"},{"primitives":[{"attributes":{"POSITION":115,"TANGENT":116,"NORMAL":117,"TEXCOORD_0":118,"TEXCOORD_1":119},"indices":114,"mode":4,"material":0}],"name":"extrudedSurface84"}],"accessors":[{"bufferView":0,"componentType":5123,"count":582,"type":"SCALAR","name":"accessorIndices"},{"bufferView":1,"componentType":5126,"count":114,"max":[495.086365,854.922363,315.394043],"min":[-260.841827,40.9018059,-287.7821],"type":"VEC3","name":"accessorPositions"},{"bufferView":2,"componentType":5126,"count":114,"type":"VEC4","name":"accessorTangents"},{"bufferView":1,"byteOffset":1368,"componentType":5126,"count":114,"type":"VEC3","name":"accessorNormals"},{"bufferView":3,"componentType":5126,"count":114,"type":"VEC2","name":"accessorUVs"},{"bufferView":3,"byteOffset":912,"componentType":5126,"count":114,"type":"VEC2","name":"accessorUV2s"},{"bufferView":0,"byteOffset":1164,"componentType":5123,"count":312,"type":"SCALAR","name":"accessorIndices"},{"bufferView":1,"byteOffset":2736,"componentType":5126,"count":78,"max":[60.7614861,42.086956,11.3842478],"min":[57.7105026,40.8797951,8.270117],"type":"VEC3","name":"accessorPositions"},{"bufferView":2,"byteOffset":1824,"componentType":5126,"count":78,"type":"VEC4","name":"accessorTangents"},{"bufferView":1,"byteOffset":3672,"componentType":5126,"count":78,"type":"VEC3","name":"accessorNormals"},{"bufferView":3,"byteOffset":1824,"componentType":5126,"count":78,"type":"VEC2","name":"accessorUVs"},{"bufferView":3,"byteOffset":2448,"componentType":5126,"count":78,"type":"VEC2","name":"accessorUV2s"},{"bufferView":0,"byteOffset":1788,"componentType":5123,"count":168,"type":"SCALAR","name":"accessorIndices"},{"bufferView":1,"byteOffset":4608,"componentType":5126,"count":58,"max":[62.2411423,42.431385,11.0060816],"min":[56.664444,40.9265938,8.648377],"type":"VEC3","name":"accessorPositions"},{"bufferView":2,"byteOffset":3072,"componentType":5126,"count":58,"type":"VEC4","name":"accessorTangents"},{"bufferView":1,"byteOffset":5304,"componentType":5126,"count":58,"type":"VEC3","name":"accessorNormals"},{"bufferView":3,"byteOffset":3072,"componentType":5126,"count":58,"type":"VEC2","name":"accessorUVs"},{"bufferView":3,"byteOffset":3536,"componentType":5126,"count":58,"type":"VEC2","name":"accessorUV2s"},{"bufferView":0,"byteOffset":2124,"componentType":5123,"count":1104,"type":"SCALAR","name":"accessorIndices"},{"bufferView":1,"byteOffset":6000,"componentType":5126,"count":423,"max":[62.9752159,42.0412254,12.3329992],"min":[55.9305038,40.3721581,7.32146],"type":"VEC3","name":"accessorPositions"},{"bufferView":2,"byteOffset":4000,"componentType":5126,"count":423,"type":"VEC4","name":"accessorTangents"},{"bufferView":1,"byteOffset":11076,"componentType":5126,"count":423,"type":"VEC3","name":"accessorNormals"},{"bufferView":3,"byteOffset":4000,"componentType":5126,"count":423,"type":"VEC2","name":"accessorUVs"},{"bufferView":3,"byteOffset":7384,"componentType":5126,"count":423,"type":"VEC2","name":"accessorUV2s"},{"bufferView":0,"byteOffset":4332,"componentType":5123,"count":432,"type":"SCALAR","name":"accessorIndices"},{"bufferView":1,"byteOffset":16152,"componentType":5126,"count":162,"max":[62.7005539,42.4126053,11.6533909],"min":[56.6798058,40.9680443,7.90909],"type":"VEC3","name":"accessorPositions"},{"bufferView":2,"byteOffset":10768,"componentType":5126,"count":162,"type":"VEC4","name":"accessorTangents"},{"bufferView":1,"byteOffset":18096,"componentType":5126,"count":162,"type":"VEC3","name":"accessorNormals"},{"bufferView":3,"byteOffset":10768,"componentType":5126,"count":162,"type":"VEC2","name":"accessorUVs"},{"bufferView":3,"byteOffset":12064,"componentType":5126,"count":162,"type":"VEC2","name":"accessorUV2s"},{"bufferView":0,"byteOffset":5196,"componentType":5123,"count":288,"type":"SCALAR","name":"accessorIndices"},{"bufferView":1,"byteOffset":20040,"componentType":5126,"count":78,"max":[60.1353,37.64021,2.46266413],"min":[58.7727051,35.568634,-2.46268249],"type":"VEC3","name":"accessorPositions"},{"bufferView":2,"byteOffset":13360,"componentType":5126,"count":78,"type":"VEC4","name":"accessorTangents"},{"bufferView":1,"byteOffset":20976,"componentType":5126,"count":78,"type":"VEC3","name":"accessorNormals"},{"bufferView":3,"byteOffset":13360,"componentType":5126,"count":78,"type":"VEC2","name":"accessorUVs"},{"bufferView":3,"byteOffset":13984,"componentType":5126,"count":78,"type":"VEC2","name":"accessorUV2s"},{"bufferView":0,"byteOffset":5772,"componentType":5123,"count":378,"type":"SCALAR","name":"accessorIndices"},{"bufferView":1,"byteOffset":21912,"componentType":5126,"count":247,"max":[60.925,37.1218147,1.44349384],"min":[57.99139,35.470417,-1.44295883],"type":"VEC3","name":"accessorPositions"},{"bufferView":2,"byteOffset":14608,"componentType":5126,"count":247,"type":"VEC4","name":"accessorTangents"},{"bufferView":1,"byteOffset":24876,"componentType":5126,"count":247,"type":"VEC3","name":"accessorNormals"},{"bufferView":3,"byteOffset":14608,"componentType":5126,"count":247,"type":"VEC2","name":"accessorUVs"},{"bufferView":3,"byteOffset":16584,"componentType":5126,"count":247,"type":"VEC2","name":"accessorUV2s"},{"bufferView":0,"byteOffset":6528,"componentType":5123,"count":504,"type":"SCALAR","name":"accessorIndices"},{"bufferView":1,"byteOffset":27840,"componentType":5126,"count":172,"max":[61.4513855,37.5471649,2.128265],"min":[57.4542,35.72183,-2.12828326],"type":"VEC3","name":"accessorPositions"},{"bufferView":2,"byteOffset":18560,"componentType":5126,"count":172,"type":"VEC4","name":"accessorTangents"},{"bufferView":1,"byteOffset":29904,"componentType":5126,"count":172,"type":"VEC3","name":"accessorNormals"},{"bufferView":3,"byteOffset":18560,"componentType":5126,"count":172,"type":"VEC2","name":"accessorUVs"},{"bufferView":3,"byteOffset":19936,"componentType":5126,"count":172,"type":"VEC2","name":"accessorUV2s"},{"bufferView":0,"byteOffset":7536,"componentType":5123,"count":216,"type":"SCALAR","name":"accessorIndices"},{"bufferView":1,"byteOffset":31968,"componentType":5126,"count":62,"max":[60.87829,36.78393,1.72343588],"min":[58.2279,35.51542,-0.6802292],"type":"VEC3","name":"accessorPositions"},{"bufferView":2,"byteOffset":21312,"componentType":5126,"count":62,"type":"VEC4","name":"accessorTangents"},{"bufferView":1,"byteOffset":32712,"componentType":5126,"count":62,"type":"VEC3","name":"accessorNormals"},{"bufferView":3,"byteOffset":21312,"componentType":5126,"count":62,"type":"VEC2","name":"accessorUVs"},{"bufferView":3,"byteOffset":21808,"componentType":5126,"count":62,"type":"VEC2","name":"accessorUV2s"},{"bufferView":0,"byteOffset":7968,"componentType":5123,"count":3018,"type":"SCALAR","name":"accessorIndices"},{"bufferView":1,"byteOffset":33456,"componentType":5126,"count":1344,"max":[62.40325,40.3187523,3.03472328],"min":[56.48917,35.07327,-2.61456227],"type":"VEC3","name":"accessorPositions"},{"bufferView":2,"byteOffset":22304,"componentType":5126,"count":1344,"type":"VEC4","name":"accessorTangents"},{"bufferView":1,"byteOffset":49584,"componentType":5126,"count":1344,"type":"VEC3","name":"accessorNormals"},{"bufferView":3,"byteOffset":22304,"componentType":5126,"count":1344,"type":"VEC2","name":"accessorUVs"},{"bufferView":3,"byteOffset":33056,"componentType":5126,"count":1344,"type":"VEC2","name":"accessorUV2s"},{"bufferView":0,"byteOffset":14004,"componentType":5123,"count":360,"type":"SCALAR","name":"accessorIndices"},{"bufferView":1,"byteOffset":65712,"componentType":5126,"count":104,"max":[60.9899063,38.1416435,1.53710485],"min":[57.91568,35.4866,-1.5371232],"type":"VEC3","name":"accessorPositions"},{"bufferView":2,"byteOffset":43808,"componentType":5126,"count":104,"type":"VEC4","name":"accessorTangents"},{"bufferView":1,"byteOffset":66960,"componentType":5126,"count":104,"type":"VEC3","name":"accessorNormals"},{"bufferView":3,"byteOffset":43808,"componentType":5126,"count":104,"type":"VEC2","name":"accessorUVs"},{"bufferView":3,"byteOffset":44640,"componentType":5126,"count":104,"type":"VEC2","name":"accessorUV2s"},{"bufferView":0,"byteOffset":14724,"componentType":5123,"count":420,"type":"SCALAR","name":"accessorIndices"},{"bufferView":1,"byteOffset":68208,"componentType":5126,"count":120,"max":[60.72389,36.66089,1.3146224],"min":[58.1816978,35.5448723,-1.31464088],"type":"VEC3","name":"accessorPositions"},{"bufferView":2,"byteOffset":45472,"componentType":5126,"count":120,"type":"VEC4","name":"accessorTangents"},{"bufferView":1,"byteOffset":69648,"componentType":5126,"count":120,"type":"VEC3","name":"accessorNormals"},{"bufferView":3,"byteOffset":45472,"componentType":5126,"count":120,"type":"VEC2","name":"accessorUVs"},{"bufferView":3,"byteOffset":46432,"componentType":5126,"count":120,"type":"VEC2","name":"accessorUV2s"},{"bufferView":0,"byteOffset":15564,"componentType":5123,"count":300,"type":"SCALAR","name":"accessorIndices"},{"bufferView":1,"byteOffset":71088,"componentType":5126,"count":57,"max":[61.2042,36.7613029,1.66567838],"min":[57.7013855,35.5779533,-1.66569686],"type":"VEC3","name":"accessorPositions"},{"bufferView":2,"byteOffset":47392,"componentType":5126,"count":57,"type":"VEC4","name":"accessorTangents"},{"bufferView":1,"byteOffset":71772,"componentType":5126,"count":57,"type":"VEC3","name":"accessorNormals"},{"bufferView":3,"byteOffset":47392,"componentType":5126,"count":57,"type":"VEC2","name":"accessorUVs"},{"bufferView":3,"byteOffset":47848,"componentType":5126,"count":57,"type":"VEC2","name":"accessorUV2s"},{"bufferView":0,"byteOffset":16164,"componentType":5123,"count":462,"type":"SCALAR","name":"accessorIndices"},{"bufferView":1,"byteOffset":72456,"componentType":5126,"count":121,"max":[62.08905,37.6927834,2.592586],"min":[56.78211,35.3396034,-2.59260464],"type":"VEC3","name":"accessorPositions"},{"bufferView":2,"byteOffset":48304,"componentType":5126,"count":121,"type":"VEC4","name":"accessorTangents"},{"bufferView":1,"byteOffset":73908,"componentType":5126,"count":121,"type":"VEC3","name":"accessorNormals"},{"bufferView":3,"byteOffset":48304,"componentType":5126,"count":121,"type":"VEC2","name":"accessorUVs"},{"bufferView":3,"byteOffset":49272,"componentType":5126,"count":121,"type":"VEC2","name":"accessorUV2s"},{"bufferView":0,"byteOffset":17088,"componentType":5123,"count":300,"type":"SCALAR","name":"accessorIndices"},{"bufferView":1,"byteOffset":75360,"componentType":5126,"count":95,"max":[60.5502968,36.9989,1.04377735],"min":[58.35529,35.5218964,-1.043796],"type":"VEC3","name":"accessorPositions"},{"bufferView":2,"byteOffset":50240,"componentType":5126,"count":95,"type":"VEC4","name":"accessorTangents"},{"bufferView":1,"byteOffset":76500,"componentType":5126,"count":95,"type":"VEC3","name":"accessorNormals"},{"bufferView":3,"byteOffset":50240,"componentType":5126,"count":95,"type":"VEC2","name":"accessorUVs"},{"bufferView":3,"byteOffset":51000,"componentType":5126,"count":95,"type":"VEC2","name":"accessorUV2s"},{"bufferView":0,"byteOffset":17688,"componentType":5123,"count":360,"type":"SCALAR","name":"accessorIndices"},{"bufferView":1,"byteOffset":77640,"componentType":5126,"count":114,"max":[61.84483,36.8055649,2.39202738],"min":[57.0607567,35.5188522,-2.392046],"type":"VEC3","name":"accessorPositions"},{"bufferView":2,"byteOffset":51760,"componentType":5126,"count":114,"type":"VEC4","name":"accessorTangents"},{"bufferView":1,"byteOffset":79008,"componentType":5126,"count":114,"type":"VEC3","name":"accessorNormals"},{"bufferView":3,"byteOffset":51760,"componentType":5126,"count":114,"type":"VEC2","name":"accessorUVs"},{"bufferView":3,"byteOffset":52672,"componentType":5126,"count":114,"type":"VEC2","name":"accessorUV2s"},{"bufferView":0,"byteOffset":18408,"componentType":5123,"count":252,"type":"SCALAR","name":"accessorIndices"},{"bufferView":1,"byteOffset":80376,"componentType":5126,"count":228,"max":[61.36521,35.9985046,1.91241038],"min":[57.5403748,35.568634,-1.91242874],"type":"VEC3","name":"accessorPositions"},{"bufferView":2,"byteOffset":53584,"componentType":5126,"count":228,"type":"VEC4","name":"accessorTangents"},{"bufferView":1,"byteOffset":83112,"componentType":5126,"count":228,"type":"VEC3","name":"accessorNormals"},{"bufferView":3,"byteOffset":53584,"componentType":5126,"count":228,"type":"VEC2","name":"accessorUVs"},{"bufferView":3,"byteOffset":55408,"componentType":5126,"count":228,"type":"VEC2","name":"accessorUV2s"},{"bufferView":0,"byteOffset":18912,"componentType":5123,"count":216,"type":"SCALAR","name":"accessorIndices"},{"bufferView":1,"byteOffset":85848,"componentType":5126,"count":62,"max":[60.87829,36.78393,1.72343588],"min":[58.2279,35.51542,-0.6802292],"type":"VEC3","name":"accessorPositions"},{"bufferView":2,"byteOffset":57232,"componentType":5126,"count":62,"type":"VEC4","name":"accessorTangents"},{"bufferView":1,"byteOffset":86592,"componentType":5126,"count":62,"type":"VEC3","name":"accessorNormals"},{"bufferView":3,"byteOffset":57232,"componentType":5126,"count":62,"type":"VEC2","name":"accessorUVs"},{"bufferView":3,"byteOffset":57728,"componentType":5126,"count":62,"type":"VEC2","name":"accessorUV2s"},{"bufferView":0,"byteOffset":19344,"componentType":5123,"count":315,"type":"SCALAR","name":"accessorIndices"},{"bufferView":1,"byteOffset":87336,"componentType":5126,"count":116,"max":[61.239666,36.3297234,1.9150871],"min":[57.66592,35.568634,-1.786882],"type":"VEC3","name":"accessorPositions"},{"bufferView":2,"byteOffset":58224,"componentType":5126,"count":116,"type":"VEC4","name":"accessorTangents"},{"bufferView":1,"byteOffset":88728,"componentType":5126,"count":116,"type":"VEC3","name":"accessorNormals"},{"bufferView":3,"byteOffset":58224,"componentType":5126,"count":116,"type":"VEC2","name":"accessorUVs"},{"bufferView":3,"byteOffset":59152,"componentType":5126,"count":116,"type":"VEC2","name":"accessorUV2s"},{"bufferView":0,"byteOffset":19976,"componentType":5123,"count":1080,"type":"SCALAR","name":"accessorIndices"},{"bufferView":1,"byteOffset":90120,"componentType":5126,"count":354,"max":[26.4348564,73.1937561,1.22004986],"min":[13.0602818,50.30454,-21.9713726],"type":"VEC3","name":"accessorPositions"},{"bufferView":2,"byteOffset":60080,"componentType":5126,"count":354,"type":"VEC4","name":"accessorTangents"},{"bufferView":1,"byteOffset":94368,"componentType":5126,"count":354,"type":"VEC3","name":"accessorNormals"},{"bufferView":3,"byteOffset":60080,"componentType":5126,"count":354,"type":"VEC2","name":"accessorUVs"},{"bufferView":3,"byteOffset":62912,"componentType":5126,"count":354,"type":"VEC2","name":"accessorUV2s"}],"bufferViews":[{"buffer":0,"byteLength":22136,"name":"bufferViewScalar"},{"buffer":0,"byteOffset":22136,"byteLength":98616,"byteStride":12,"name":"bufferViewFloatVec3"},{"buffer":0,"byteOffset":120752,"byteLength":65744,"byteStride":16,"name":"bufferViewFloatVec4"},{"buffer":0,"byteOffset":186496,"byteLength":65744,"byteStride":8,"name":"bufferViewFloatVec2"}],"buffers":[{"uri":"brightShiny_01.bin","byteLength":252240}],"materials":[{"pbrMetallicRoughness":{"baseColorFactor":[0.8,0.8,0.8,1.0],"baseColorTexture":{"index":0,"texCoord":0},"metallicFactor":0.0,"roughnessFactor":0.30625},"emissiveFactor":[0.0,0.0,0.0],"alphaMode":"OPAQUE","name":"Main_mat"}],"textures":[{"sampler":0,"source":0,"name":"colorScheme_gradient.png"}],"images":[{"uri":"colorScheme_gradient.png"}],"samplers":[{"magFilter":9729,"minFilter":9987,"wrapS":10497,"wrapT":10497}]}