{"asset":{"version":"2.0","generator":"babylon.js glTF exporter for Maya 2018 v20190918.9"},"scene":0,"scenes":[{"nodes":[0,2],"extensions":{}}],"nodes":[{"children":[1],"translation":[0.0,0.0,0.0],"rotation":[0.0,0.0,0.0,1.0],"scale":[1.0,1.0,1.0],"name":"G_cosmology1"},{"mesh":0,"translation":[0.0,3.71047139,0.0],"rotation":[0.0,0.0,0.0,1.0],"scale":[0.7941218,0.7941218,0.7941218],"name":"G_clouds"},{"translation":[0.0,0.0,0.0],"rotation":[0.0,0.0,0.0,1.0],"scale":[1.0,1.0,1.0],"name":"Default light"}],"meshes":[{"primitives":[{"attributes":{"POSITION":1,"TANGENT":2,"NORMAL":3,"TEXCOORD_0":4,"TEXCOORD_1":5},"indices":0,"mode":4,"material":0}],"name":"G_clouds"}],"accessors":[{"bufferView":0,"componentType":5123,"count":14124,"type":"SCALAR","name":"accessorIndices"},{"bufferView":1,"componentType":5126,"count":3684,"max":[44.1761627,26.5638447,48.00528],"min":[-61.0455,-1.08527184,-41.45496],"type":"VEC3","name":"accessorPositions"},{"bufferView":2,"componentType":5126,"count":3684,"type":"VEC4","name":"accessorTangents"},{"bufferView":1,"byteOffset":44208,"componentType":5126,"count":3684,"type":"VEC3","name":"accessorNormals"},{"bufferView":3,"componentType":5126,"count":3684,"type":"VEC2","name":"accessorUVs"},{"bufferView":3,"byteOffset":29472,"componentType":5126,"count":3684,"type":"VEC2","name":"accessorUV2s"}],"bufferViews":[{"buffer":0,"byteLength":28248,"name":"bufferViewScalar"},{"buffer":0,"byteOffset":28248,"byteLength":88416,"byteStride":12,"name":"bufferViewFloatVec3"},{"buffer":0,"byteOffset":116664,"byteLength":58944,"byteStride":16,"name":"bufferViewFloatVec4"},{"buffer":0,"byteOffset":175608,"byteLength":58944,"byteStride":8,"name":"bufferViewFloatVec2"}],"buffers":[{"uri":"clouds_01.bin","byteLength":234552}],"materials":[{"pbrMetallicRoughness":{"baseColorFactor":[0.8,0.8,0.8,1.0],"baseColorTexture":{"index":0,"texCoord":0},"metallicFactor":0.0,"roughnessFactor":0.30625},"emissiveFactor":[0.0,0.0,0.0],"alphaMode":"OPAQUE","name":"Main_mat"}],"textures":[{"sampler":0,"source":0,"name":"colorScheme_gradient.png"}],"images":[{"uri":"colorScheme_gradient.png"}],"samplers":[{"magFilter":9729,"minFilter":9987,"wrapS":10497,"wrapT":10497}]}