{"asset":{"version":"2.0","generator":"babylon.js glTF exporter for Maya 2018 v20190918.9"},"scene":0,"scenes":[{"nodes":[0,24],"extensions":{}}],"nodes":[{"children":[1],"translation":[0.0,0.0,0.0],"rotation":[0.0,0.0,0.0,1.0],"scale":[1.0,1.0,1.0],"name":"G_cosmology1"},{"children":[2,5,21,22,23],"translation":[0.0,0.0,0.0],"rotation":[0.0,0.0,0.0,1.0],"scale":[1.0,1.0,1.0],"name":"cosmology"},{"children":[3,4],"translation":[0.0,0.0,0.0],"rotation":[0.0,0.0,0.0,1.0],"scale":[1.0,1.0,1.0],"name":"midRealm"},{"mesh":0,"translation":[0.0,0.0,0.0],"rotation":[0.0,0.0,0.0,1.0],"scale":[1.0,1.0,1.0],"name":"mid_base"},{"mesh":1,"translation":[0.0,-13.87836,0.0],"rotation":[0.0,0.0,0.0,1.0],"scale":[32.89858,32.89858,32.89858],"name":"mid_mountains"},{"children":[6,7,8,9,10,11,12,13,14,15,16,17,18,19,20],"translation":[0.0,0.0,0.0],"rotation":[0.0,0.0,0.0,1.0],"scale":[1.0,1.0,1.0],"name":"pedal"},{"mesh":2,"translation":[0.0,0.0,0.0],"rotation":[0.0,0.0,0.0,1.0],"scale":[1.0,1.0,1.0],"name":"polySurface583"},{"mesh":3,"translation":[0.0,0.0,0.0],"rotation":[0.0,0.0,0.0,1.0],"scale":[1.0,1.0,1.0],"name":"polySurface584"},{"mesh":4,"translation":[0.0,0.0,0.0],"rotation":[0.0,0.0,0.0,1.0],"scale":[1.0,1.0,1.0],"name":"polySurface585"},{"mesh":5,"translation":[0.0,0.0,0.0],"rotation":[0.0,0.0,0.0,1.0],"scale":[1.0,1.0,1.0],"name":"polySurface588"},{"mesh":6,"translation":[0.0,0.0,0.0],"rotation":[0.0,0.0,0.0,1.0],"scale":[1.0,1.0,1.0],"name":"polySurface589"},{"mesh":7,"translation":[0.0,0.0,0.0],"rotation":[0.0,0.0,0.0,1.0],"scale":[1.0,1.0,1.0],"name":"polySurface592"},{"mesh":8,"translation":[0.0,0.0,0.0],"rotation":[0.0,0.0,0.0,1.0],"scale":[1.0,1.0,1.0],"name":"polySurface593"},{"mesh":9,"translation":[0.0,0.0,0.0],"rotation":[0.0,0.0,0.0,1.0],"scale":[1.0,1.0,1.0],"name":"polySurface596"},{"mesh":10,"translation":[0.0,0.0,0.0],"rotation":[0.0,0.0,0.0,1.0],"scale":[1.0,1.0,1.0],"name":"polySurface601"},{"mesh":11,"translation":[0.0,0.0,0.0],"rotation":[0.0,0.0,0.0,1.0],"scale":[1.0,1.0,1.0],"name":"polySurface587"},{"mesh":12,"translation":[0.0,0.0,0.0],"rotation":[0.0,0.0,0.0,1.0],"scale":[1.0,1.0,1.0],"name":"polySurface582"},{"mesh":13,"translation":[0.0,0.0,0.0],"rotation":[0.0,1.0,0.0,6.123234E-17],"scale":[1.0,1.0,1.0],"name":"polySurface613"},{"mesh":14,"translation":[0.0,0.0,0.0],"rotation":[0.0,0.707106769,0.0,0.707106769],"scale":[1.0,1.0,1.0],"name":"polySurface614"},{"mesh":15,"translation":[0.0,0.0,0.0],"rotation":[0.0,1.0,0.0,2.83276934E-16],"scale":[1.0,1.0,1.0],"name":"polySurface615"},{"mesh":16,"translation":[0.0,0.0,0.0],"rotation":[0.0,-0.707106769,0.0,0.707106769],"scale":[1.0,1.0,1.0],"name":"polySurface616"},{"mesh":17,"translation":[0.0,-9.364334,0.0],"rotation":[0.0,0.0,0.0,1.0],"scale":[1.0,0.7370354,1.0],"name":"dark_base"},{"mesh":18,"translation":[0.0,0.0,0.0],"rotation":[0.0,0.0,0.0,1.0],"scale":[1.0,1.0,1.0],"name":"pCube92"},{"mesh":19,"translation":[0.0,0.0,0.0],"rotation":[0.0,0.0,0.0,1.0],"scale":[1.0,1.0,1.0],"name":"pPlatonic74"},{"translation":[0.0,0.0,0.0],"rotation":[0.0,0.0,0.0,1.0],"scale":[1.0,1.0,1.0],"name":"Default light"}],"meshes":[{"primitives":[{"attributes":{"POSITION":1,"TANGENT":2,"NORMAL":3,"TEXCOORD_0":4,"TEXCOORD_1":5},"indices":0,"mode":4,"material":0}],"name":"mid_base"},{"primitives":[{"attributes":{"POSITION":7,"TANGENT":8,"NORMAL":9,"TEXCOORD_0":10},"indices":6,"mode":4,"material":0}],"name":"mid_mountains"},{"primitives":[{"attributes":{"POSITION":12,"TANGENT":13,"NORMAL":14,"TEXCOORD_0":15,"TEXCOORD_1":16},"indices":11,"mode":4,"material":0}],"name":"polySurface583"},{"primitives":[{"attributes":{"POSITION":18,"TANGENT":19,"NORMAL":20,"TEXCOORD_0":21},"indices":17,"mode":4,"material":0}],"name":"polySurface584"},{"primitives":[{"attributes":{"POSITION":23,"TANGENT":24,"NORMAL":25,"TEXCOORD_0":26,"TEXCOORD_1":27},"indices":22,"mode":4,"material":0}],"name":"polySurface585"},{"primitives":[{"attributes":{"POSITION":29,"TANGENT":30,"NORMAL":31,"TEXCOORD_0":32,"TEXCOORD_1":33},"indices":28,"mode":4,"material":0}],"name":"polySurface588"},{"primitives":[{"attributes":{"POSITION":35,"TANGENT":36,"NORMAL":37,"TEXCOORD_0":38,"TEXCOORD_1":39},"indices":34,"mode":4,"material":0}],"name":"polySurface589"},{"primitives":[{"attributes":{"POSITION":41,"TANGENT":42,"NORMAL":43,"TEXCOORD_0":44,"TEXCOORD_1":45},"indices":40,"mode":4,"material":0}],"name":"polySurface592"},{"primitives":[{"attributes":{"POSITION":47,"TANGENT":48,"NORMAL":49,"TEXCOORD_0":50,"TEXCOORD_1":51},"indices":46,"mode":4,"material":0}],"name":"polySurface593"},{"primitives":[{"attributes":{"POSITION":53,"TANGENT":54,"NORMAL":55,"TEXCOORD_0":56,"TEXCOORD_1":57},"indices":52,"mode":4,"material":0}],"name":"polySurface596"},{"primitives":[{"attributes":{"POSITION":59,"TANGENT":60,"NORMAL":61,"TEXCOORD_0":62},"indices":58,"mode":4,"material":0}],"name":"polySurface601"},{"primitives":[{"attributes":{"POSITION":64,"TANGENT":65,"NORMAL":66,"TEXCOORD_0":67,"TEXCOORD_1":68},"indices":63,"mode":4,"material":0}],"name":"polySurface587"},{"primitives":[{"attributes":{"POSITION":70,"TANGENT":71,"NORMAL":72,"TEXCOORD_0":73,"TEXCOORD_1":74},"indices":69,"mode":4,"material":0}],"name":"polySurface582"},{"primitives":[{"attributes":{"POSITION":76,"TANGENT":77,"NORMAL":78,"TEXCOORD_0":79,"TEXCOORD_1":80},"indices":75,"mode":4,"material":0}],"name":"polySurface613"},{"primitives":[{"attributes":{"POSITION":82,"TANGENT":83,"NORMAL":84,"TEXCOORD_0":85,"TEXCOORD_1":86},"indices":81,"mode":4,"material":0}],"name":"polySurface614"},{"primitives":[{"attributes":{"POSITION":88,"TANGENT":89,"NORMAL":90,"TEXCOORD_0":91,"TEXCOORD_1":92},"indices":87,"mode":4,"material":0}],"name":"polySurface615"},{"primitives":[{"attributes":{"POSITION":94,"TANGENT":95,"NORMAL":96,"TEXCOORD_0":97,"TEXCOORD_1":98},"indices":93,"mode":4,"material":0}],"name":"polySurface616"},{"primitives":[{"attributes":{"POSITION":100,"TANGENT":101,"NORMAL":102,"TEXCOORD_0":103,"TEXCOORD_1":104},"indices":99,"mode":4,"material":0}],"name":"dark_base"},{"primitives":[{"attributes":{"POSITION":106,"TANGENT":107,"NORMAL":108,"TEXCOORD_0":109,"TEXCOORD_1":110},"indices":105,"mode":4,"material":0}],"name":"pCube92"},{"primitives":[{"attributes":{"POSITION":112,"TANGENT":113,"NORMAL":114,"TEXCOORD_0":115,"TEXCOORD_1":116},"indices":111,"mode":4,"material":0}],"name":"pPlatonic74"}],"accessors":[{"bufferView":0,"componentType":5123,"count":1971,"type":"SCALAR","name":"accessorIndices"},{"bufferView":1,"componentType":5126,"count":493,"max":[59.7293625,-8.247843,59.7293625],"min":[-59.7293625,-48.4479332,-59.7293625],"type":"VEC3","name":"accessorPositions"},{"bufferView":2,"componentType":5126,"count":493,"type":"VEC4","name":"accessorTangents"},{"bufferView":1,"byteOffset":5916,"componentType":5126,"count":493,"type":"VEC3","name":"accessorNormals"},{"bufferView":3,"componentType":5126,"count":493,"type":"VEC2","name":"accessorUVs"},{"bufferView":3,"byteOffset":3944,"componentType":5126,"count":493,"type":"VEC2","name":"accessorUV2s"},{"bufferView":0,"byteOffset":3944,"componentType":5123,"count":756,"type":"SCALAR","name":"accessorIndices"},{"bufferView":1,"byteOffset":11832,"componentType":5126,"count":194,"max":[1.5342561,0.194511414,1.26857674],"min":[-1.43175781,-0.6370952,-1.32610667],"type":"VEC3","name":"accessorPositions"},{"bufferView":2,"byteOffset":7888,"componentType":5126,"count":194,"type":"VEC4","name":"accessorTangents"},{"bufferView":1,"byteOffset":14160,"componentType":5126,"count":194,"type":"VEC3","name":"accessorNormals"},{"bufferView":3,"byteOffset":7888,"componentType":5126,"count":194,"type":"VEC2","name":"accessorUVs"},{"bufferView":0,"byteOffset":5456,"componentType":5123,"count":450,"type":"SCALAR","name":"accessorIndices"},{"bufferView":1,"byteOffset":16488,"componentType":5126,"count":81,"max":[65.38141,-47.6239777,-0.01119265],"min":[-0.149485126,-91.085434,-65.43374],"type":"VEC3","name":"accessorPositions"},{"bufferView":2,"byteOffset":10992,"componentType":5126,"count":81,"type":"VEC4","name":"accessorTangents"},{"bufferView":1,"byteOffset":17460,"componentType":5126,"count":81,"type":"VEC3","name":"accessorNormals"},{"bufferView":3,"byteOffset":9440,"componentType":5126,"count":81,"type":"VEC2","name":"accessorUVs"},{"bufferView":3,"byteOffset":10088,"componentType":5126,"count":81,"type":"VEC2","name":"accessorUV2s"},{"bufferView":0,"byteOffset":6356,"componentType":5123,"count":978,"type":"SCALAR","name":"accessorIndices"},{"bufferView":1,"byteOffset":18432,"componentType":5126,"count":232,"max":[64.858,-79.9549,59.6725349],"min":[-64.858,-110.913086,-58.1381531],"type":"VEC3","name":"accessorPositions"},{"bufferView":2,"byteOffset":12288,"componentType":5126,"count":232,"type":"VEC4","name":"accessorTangents"},{"bufferView":1,"byteOffset":21216,"componentType":5126,"count":232,"type":"VEC3","name":"accessorNormals"},{"bufferView":3,"byteOffset":10736,"componentType":5126,"count":232,"type":"VEC2","name":"accessorUVs"},{"bufferView":0,"byteOffset":8312,"componentType":5123,"count":282,"type":"SCALAR","name":"accessorIndices"},{"bufferView":1,"byteOffset":24000,"componentType":5126,"count":54,"max":[34.03492,-27.8930149,-24.8630123],"min":[-34.07236,-83.91372,-94.2780457],"type":"VEC3","name":"accessorPositions"},{"bufferView":2,"byteOffset":16000,"componentType":5126,"count":54,"type":"VEC4","name":"accessorTangents"},{"bufferView":1,"byteOffset":24648,"componentType":5126,"count":54,"type":"VEC3","name":"accessorNormals"},{"bufferView":3,"byteOffset":12592,"componentType":5126,"count":54,"type":"VEC2","name":"accessorUVs"},{"bufferView":3,"byteOffset":13024,"componentType":5126,"count":54,"type":"VEC2","name":"accessorUV2s"},{"bufferView":0,"byteOffset":8876,"componentType":5123,"count":450,"type":"SCALAR","name":"accessorIndices"},{"bufferView":1,"byteOffset":25296,"componentType":5126,"count":81,"max":[0.149470866,-47.6239777,-0.0111785233],"min":[-65.76983,-91.085434,-65.43082],"type":"VEC3","name":"accessorPositions"},{"bufferView":2,"byteOffset":16864,"componentType":5126,"count":81,"type":"VEC4","name":"accessorTangents"},{"bufferView":1,"byteOffset":26268,"componentType":5126,"count":81,"type":"VEC3","name":"accessorNormals"},{"bufferView":3,"byteOffset":13456,"componentType":5126,"count":81,"type":"VEC2","name":"accessorUVs"},{"bufferView":3,"byteOffset":14104,"componentType":5126,"count":81,"type":"VEC2","name":"accessorUV2s"},{"bufferView":0,"byteOffset":9776,"componentType":5123,"count":282,"type":"SCALAR","name":"accessorIndices"},{"bufferView":1,"byteOffset":27240,"componentType":5126,"count":54,"max":[-24.73335,-28.9754238,33.96027],"min":[-93.20591,-83.91372,-34.14727],"type":"VEC3","name":"accessorPositions"},{"bufferView":2,"byteOffset":18160,"componentType":5126,"count":54,"type":"VEC4","name":"accessorTangents"},{"bufferView":1,"byteOffset":27888,"componentType":5126,"count":54,"type":"VEC3","name":"accessorNormals"},{"bufferView":3,"byteOffset":14752,"componentType":5126,"count":54,"type":"VEC2","name":"accessorUVs"},{"bufferView":3,"byteOffset":15184,"componentType":5126,"count":54,"type":"VEC2","name":"accessorUV2s"},{"bufferView":0,"byteOffset":10340,"componentType":5123,"count":450,"type":"SCALAR","name":"accessorIndices"},{"bufferView":1,"byteOffset":28536,"componentType":5126,"count":81,"max":[0.149485126,-58.0152969,67.68537],"min":[-67.3044,-91.085434,-0.31013447],"type":"VEC3","name":"accessorPositions"},{"bufferView":2,"byteOffset":19024,"componentType":5126,"count":81,"type":"VEC4","name":"accessorTangents"},{"bufferView":1,"byteOffset":29508,"componentType":5126,"count":81,"type":"VEC3","name":"accessorNormals"},{"bufferView":3,"byteOffset":15616,"componentType":5126,"count":81,"type":"VEC2","name":"accessorUVs"},{"bufferView":3,"byteOffset":16264,"componentType":5126,"count":81,"type":"VEC2","name":"accessorUV2s"},{"bufferView":0,"byteOffset":11240,"componentType":5123,"count":318,"type":"SCALAR","name":"accessorIndices"},{"bufferView":1,"byteOffset":30480,"componentType":5126,"count":60,"max":[34.07236,-27.4630165,85.5709],"min":[-34.03492,-83.91372,24.60369],"type":"VEC3","name":"accessorPositions"},{"bufferView":2,"byteOffset":20320,"componentType":5126,"count":60,"type":"VEC4","name":"accessorTangents"},{"bufferView":1,"byteOffset":31200,"componentType":5126,"count":60,"type":"VEC3","name":"accessorNormals"},{"bufferView":3,"byteOffset":16912,"componentType":5126,"count":60,"type":"VEC2","name":"accessorUVs"},{"bufferView":3,"byteOffset":17392,"componentType":5126,"count":60,"type":"VEC2","name":"accessorUV2s"},{"bufferView":0,"byteOffset":11876,"componentType":5123,"count":492,"type":"SCALAR","name":"accessorIndices"},{"bufferView":1,"byteOffset":31920,"componentType":5126,"count":88,"max":[76.36118,-54.68742,68.1015549],"min":[-0.149470866,-91.085434,-0.300012976],"type":"VEC3","name":"accessorPositions"},{"bufferView":2,"byteOffset":21280,"componentType":5126,"count":88,"type":"VEC4","name":"accessorTangents"},{"bufferView":1,"byteOffset":32976,"componentType":5126,"count":88,"type":"VEC3","name":"accessorNormals"},{"bufferView":3,"byteOffset":17872,"componentType":5126,"count":88,"type":"VEC2","name":"accessorUVs"},{"bufferView":3,"byteOffset":18576,"componentType":5126,"count":88,"type":"VEC2","name":"accessorUV2s"},{"bufferView":0,"byteOffset":12860,"componentType":5123,"count":168,"type":"SCALAR","name":"accessorIndices"},{"bufferView":1,"byteOffset":34032,"componentType":5126,"count":37,"max":[24.0045338,-106.92215,23.9234161],"min":[-24.0045338,-124.819221,-24.0856533],"type":"VEC3","name":"accessorPositions"},{"bufferView":2,"byteOffset":22688,"componentType":5126,"count":37,"type":"VEC4","name":"accessorTangents"},{"bufferView":1,"byteOffset":34476,"componentType":5126,"count":37,"type":"VEC3","name":"accessorNormals"},{"bufferView":3,"byteOffset":19280,"componentType":5126,"count":37,"type":"VEC2","name":"accessorUVs"},{"bufferView":0,"byteOffset":13196,"componentType":5123,"count":615,"type":"SCALAR","name":"accessorIndices"},{"bufferView":1,"byteOffset":34920,"componentType":5126,"count":162,"max":[73.88861,53.6709747,-27.5127316],"min":[27.5127316,-70.15684,-73.89254],"type":"VEC3","name":"accessorPositions"},{"bufferView":2,"byteOffset":23280,"componentType":5126,"count":162,"type":"VEC4","name":"accessorTangents"},{"bufferView":1,"byteOffset":36864,"componentType":5126,"count":162,"type":"VEC3","name":"accessorNormals"},{"bufferView":3,"byteOffset":19576,"componentType":5126,"count":162,"type":"VEC2","name":"accessorUVs"},{"bufferView":3,"byteOffset":20872,"componentType":5126,"count":162,"type":"VEC2","name":"accessorUV2s"},{"bufferView":0,"byteOffset":14428,"componentType":5123,"count":7968,"type":"SCALAR","name":"accessorIndices"},{"bufferView":1,"byteOffset":38808,"componentType":5126,"count":2042,"max":[89.71939,6.287159,89.7106],"min":[-89.71939,-75.41538,-89.72819],"type":"VEC3","name":"accessorPositions"},{"bufferView":2,"byteOffset":25872,"componentType":5126,"count":2042,"type":"VEC4","name":"accessorTangents"},{"bufferView":1,"byteOffset":63312,"componentType":5126,"count":2042,"type":"VEC3","name":"accessorNormals"},{"bufferView":3,"byteOffset":22168,"componentType":5126,"count":2042,"type":"VEC2","name":"accessorUVs"},{"bufferView":3,"byteOffset":38504,"componentType":5126,"count":2042,"type":"VEC2","name":"accessorUV2s"},{"bufferView":0,"byteOffset":30364,"componentType":5123,"count":282,"type":"SCALAR","name":"accessorIndices"},{"bufferView":1,"byteOffset":87816,"componentType":5126,"count":54,"max":[-24.73335,-28.9754238,34.187542],"min":[-93.20591,-83.91372,-33.91999],"type":"VEC3","name":"accessorPositions"},{"bufferView":2,"byteOffset":58544,"componentType":5126,"count":54,"type":"VEC4","name":"accessorTangents"},{"bufferView":1,"byteOffset":88464,"componentType":5126,"count":54,"type":"VEC3","name":"accessorNormals"},{"bufferView":3,"byteOffset":54840,"componentType":5126,"count":54,"type":"VEC2","name":"accessorUVs"},{"bufferView":3,"byteOffset":55272,"componentType":5126,"count":54,"type":"VEC2","name":"accessorUV2s"},{"bufferView":0,"byteOffset":30928,"componentType":5123,"count":615,"type":"SCALAR","name":"accessorIndices"},{"bufferView":1,"byteOffset":89112,"componentType":5126,"count":162,"max":[73.89254,53.6709747,-27.5127316],"min":[27.5127316,-70.15684,-73.88861],"type":"VEC3","name":"accessorPositions"},{"bufferView":2,"byteOffset":59408,"componentType":5126,"count":162,"type":"VEC4","name":"accessorTangents"},{"bufferView":1,"byteOffset":91056,"componentType":5126,"count":162,"type":"VEC3","name":"accessorNormals"},{"bufferView":3,"byteOffset":55704,"componentType":5126,"count":162,"type":"VEC2","name":"accessorUVs"},{"bufferView":3,"byteOffset":57000,"componentType":5126,"count":162,"type":"VEC2","name":"accessorUV2s"},{"bufferView":0,"byteOffset":32160,"componentType":5123,"count":615,"type":"SCALAR","name":"accessorIndices"},{"bufferView":1,"byteOffset":93000,"componentType":5126,"count":162,"max":[73.88861,53.6709747,-27.5127316],"min":[27.5127316,-70.15684,-73.88469],"type":"VEC3","name":"accessorPositions"},{"bufferView":2,"byteOffset":62000,"componentType":5126,"count":162,"type":"VEC4","name":"accessorTangents"},{"bufferView":1,"byteOffset":94944,"componentType":5126,"count":162,"type":"VEC3","name":"accessorNormals"},{"bufferView":3,"byteOffset":58296,"componentType":5126,"count":162,"type":"VEC2","name":"accessorUVs"},{"bufferView":3,"byteOffset":59592,"componentType":5126,"count":162,"type":"VEC2","name":"accessorUV2s"},{"bufferView":0,"byteOffset":33392,"componentType":5123,"count":615,"type":"SCALAR","name":"accessorIndices"},{"bufferView":1,"byteOffset":96888,"componentType":5126,"count":162,"max":[73.88469,53.6709747,-27.5127316],"min":[27.5127316,-70.15684,-73.88861],"type":"VEC3","name":"accessorPositions"},{"bufferView":2,"byteOffset":64592,"componentType":5126,"count":162,"type":"VEC4","name":"accessorTangents"},{"bufferView":1,"byteOffset":98832,"componentType":5126,"count":162,"type":"VEC3","name":"accessorNormals"},{"bufferView":3,"byteOffset":60888,"componentType":5126,"count":162,"type":"VEC2","name":"accessorUVs"},{"bufferView":3,"byteOffset":62184,"componentType":5126,"count":162,"type":"VEC2","name":"accessorUV2s"},{"bufferView":0,"byteOffset":34624,"componentType":5123,"count":3264,"type":"SCALAR","name":"accessorIndices"},{"bufferView":1,"byteOffset":100776,"componentType":5126,"count":1547,"max":[53.5132065,-16.1329613,46.2401123],"min":[-52.536953,-85.94637,-55.3186722],"type":"VEC3","name":"accessorPositions"},{"bufferView":2,"byteOffset":67184,"componentType":5126,"count":1547,"type":"VEC4","name":"accessorTangents"},{"bufferView":1,"byteOffset":119340,"componentType":5126,"count":1547,"type":"VEC3","name":"accessorNormals"},{"bufferView":3,"byteOffset":63480,"componentType":5126,"count":1547,"type":"VEC2","name":"accessorUVs"},{"bufferView":3,"byteOffset":75856,"componentType":5126,"count":1547,"type":"VEC2","name":"accessorUV2s"},{"bufferView":0,"byteOffset":41152,"componentType":5123,"count":2484,"type":"SCALAR","name":"accessorIndices"},{"bufferView":1,"byteOffset":137904,"componentType":5126,"count":728,"max":[69.74516,58.4956665,62.6204567],"min":[-62.6204567,11.6596432,-62.6204567],"type":"VEC3","name":"accessorPositions"},{"bufferView":2,"byteOffset":91936,"componentType":5126,"count":728,"type":"VEC4","name":"accessorTangents"},{"bufferView":1,"byteOffset":146640,"componentType":5126,"count":728,"type":"VEC3","name":"accessorNormals"},{"bufferView":3,"byteOffset":88232,"componentType":5126,"count":728,"type":"VEC2","name":"accessorUVs"},{"bufferView":3,"byteOffset":94056,"componentType":5126,"count":728,"type":"VEC2","name":"accessorUV2s"},{"bufferView":0,"byteOffset":46120,"componentType":5123,"count":786,"type":"SCALAR","name":"accessorIndices"},{"bufferView":1,"byteOffset":155376,"componentType":5126,"count":547,"max":[-5.05171,54.19177,15.6076517],"min":[-32.67991,32.7602654,-21.0940819],"type":"VEC3","name":"accessorPositions"},{"bufferView":2,"byteOffset":103584,"componentType":5126,"count":547,"type":"VEC4","name":"accessorTangents"},{"bufferView":1,"byteOffset":161940,"componentType":5126,"count":547,"type":"VEC3","name":"accessorNormals"},{"bufferView":3,"byteOffset":99880,"componentType":5126,"count":547,"type":"VEC2","name":"accessorUVs"},{"bufferView":3,"byteOffset":104256,"componentType":5126,"count":547,"type":"VEC2","name":"accessorUV2s"}],"bufferViews":[{"buffer":0,"byteLength":47692,"name":"bufferViewScalar"},{"buffer":0,"byteOffset":47692,"byteLength":168504,"byteStride":12,"name":"bufferViewFloatVec3"},{"buffer":0,"byteOffset":216196,"byteLength":112336,"byteStride":16,"name":"bufferViewFloatVec4"},{"buffer":0,"byteOffset":328532,"byteLength":108632,"byteStride":8,"name":"bufferViewFloatVec2"}],"buffers":[{"uri":"cosmology_01.bin","byteLength":437164}],"materials":[{"pbrMetallicRoughness":{"baseColorFactor":[0.8,0.8,0.8,1.0],"baseColorTexture":{"index":0,"texCoord":0},"metallicFactor":0.0,"roughnessFactor":0.30625},"emissiveFactor":[0.0,0.0,0.0],"alphaMode":"OPAQUE","name":"Main_mat"}],"textures":[{"sampler":0,"source":0,"name":"colorScheme_gradient.png"}],"images":[{"uri":"colorScheme_gradient.png"}],"samplers":[{"magFilter":9729,"minFilter":9987,"wrapS":10497,"wrapT":10497}]}