{"asset":{"version":"2.0","generator":"babylon.js glTF exporter for Maya 2018 v20190918.9"},"scene":0,"scenes":[{"nodes":[0,22],"extensions":{}}],"nodes":[{"children":[1],"translation":[0.0,0.0,0.0],"rotation":[0.0,0.0,0.0,1.0],"scale":[1.0,1.0,1.0],"name":"G_cosmology1"},{"children":[2,5,8,13,17,21],"translation":[0.0,0.0,0.0],"rotation":[0.0,0.0,0.0,1.0],"scale":[1.0,1.0,1.0],"name":"G_houses"},{"children":[3,4],"translation":[0.0,0.0,0.0],"rotation":[0.0,0.0,0.0,1.0],"scale":[1.0,1.0,1.0],"name":"group200"},{"mesh":0,"translation":[0.0,0.0,0.0],"rotation":[0.0,0.0,0.0,1.0],"scale":[1.0,1.0,1.0],"name":"pCylinder206"},{"mesh":1,"translation":[0.0,0.0,0.0],"rotation":[0.0,0.0,0.0,1.0],"scale":[1.0,1.0,1.0],"name":"pSphere34"},{"children":[6,7],"translation":[0.0,0.0,0.0],"rotation":[0.0,0.0,0.0,1.0],"scale":[1.0,1.0,1.0],"name":"group202"},{"mesh":2,"translation":[0.0,0.0,0.0],"rotation":[0.0,0.0,0.0,1.0],"scale":[1.0,1.0,1.0],"name":"pSphere39"},{"mesh":3,"translation":[0.0,0.0,0.0],"rotation":[0.0,0.0,0.0,1.0],"scale":[1.0,1.0,1.0],"name":"pCylinder207"},{"children":[9,12],"translation":[0.0,0.0,0.0],"rotation":[0.0,0.0,0.0,1.0],"scale":[1.0,1.0,1.0],"name":"group203"},{"children":[10,11],"translation":[0.0,0.0,0.0],"rotation":[0.0,0.0,0.0,1.0],"scale":[1.0,1.0,1.0],"name":"group204"},{"mesh":4,"translation":[0.0,0.0,0.0],"rotation":[0.0,0.0,0.0,1.0],"scale":[1.0,1.0,1.0],"name":"pCube96"},{"mesh":5,"translation":[0.0,0.0,0.0],"rotation":[0.0,0.0,0.0,1.0],"scale":[1.0,1.0,1.0],"name":"pCylinder208"},{"mesh":6,"translation":[0.0,0.0,0.0],"rotation":[0.0,0.0,0.0,1.0],"scale":[1.0,1.0,1.0],"name":"pSphere48"},{"children":[14,15,16],"translation":[0.0,0.0,0.0],"rotation":[0.0,0.0,0.0,1.0],"scale":[1.0,1.0,1.0],"name":"group205"},{"mesh":7,"translation":[0.0,0.0,0.0],"rotation":[0.0,0.0,0.0,1.0],"scale":[1.0,1.0,1.0],"name":"pCylinder213"},{"mesh":8,"translation":[0.0,0.0,0.0],"rotation":[0.0,0.0,0.0,1.0],"scale":[1.0,1.0,1.0],"name":"pSphere49"},{"mesh":9,"translation":[0.0,0.0,0.0],"rotation":[0.0,0.0,0.0,1.0],"scale":[1.0,1.0,1.0],"name":"pCube97"},{"children":[18,19,20],"translation":[0.0,0.0,0.0],"rotation":[0.0,0.0,0.0,1.0],"scale":[1.0,1.0,1.0],"name":"group198"},{"mesh":10,"translation":[0.0,0.0,0.0],"rotation":[0.0,0.0,0.0,1.0],"scale":[1.0,1.0,1.0],"name":"pCube95"},{"mesh":11,"translation":[0.0,0.0,0.0],"rotation":[0.0,0.0,0.0,1.0],"scale":[1.0,1.0,1.0],"name":"pCube94"},{"mesh":12,"translation":[0.0,0.0,0.0],"rotation":[0.0,0.0,0.0,1.0],"scale":[1.0,1.0,1.0],"name":"pDisc59"},{"mesh":13,"translation":[-3.21228027,40.7460365,-39.2916374],"rotation":[0.0,0.0,0.0,1.0],"scale":[3.15287971,3.25384641,3.15287971],"name":"pCylinder214"},{"translation":[0.0,0.0,0.0],"rotation":[0.0,0.0,0.0,1.0],"scale":[1.0,1.0,1.0],"name":"Default light"}],"meshes":[{"primitives":[{"attributes":{"POSITION":1,"TANGENT":2,"NORMAL":3,"TEXCOORD_0":4,"TEXCOORD_1":5},"indices":0,"mode":4,"material":0}],"name":"pCylinder206"},{"primitives":[{"attributes":{"POSITION":7,"TANGENT":8,"NORMAL":9,"TEXCOORD_0":10,"TEXCOORD_1":11},"indices":6,"mode":4,"material":0}],"name":"pSphere34"},{"primitives":[{"attributes":{"POSITION":13,"TANGENT":14,"NORMAL":15,"TEXCOORD_0":16,"TEXCOORD_1":17},"indices":12,"mode":4,"material":0}],"name":"pSphere39"},{"primitives":[{"attributes":{"POSITION":19,"TANGENT":20,"NORMAL":21,"TEXCOORD_0":22,"TEXCOORD_1":23},"indices":18,"mode":4,"material":0}],"name":"pCylinder207"},{"primitives":[{"attributes":{"POSITION":25,"TANGENT":26,"NORMAL":27,"TEXCOORD_0":28,"TEXCOORD_1":29},"indices":24,"mode":4,"material":0}],"name":"pCube96"},{"primitives":[{"attributes":{"POSITION":31,"TANGENT":32,"NORMAL":33,"TEXCOORD_0":34,"TEXCOORD_1":35},"indices":30,"mode":4,"material":0}],"name":"pCylinder208"},{"primitives":[{"attributes":{"POSITION":37,"TANGENT":38,"NORMAL":39,"TEXCOORD_0":40,"TEXCOORD_1":41},"indices":36,"mode":4,"material":0}],"name":"pSphere48"},{"primitives":[{"attributes":{"POSITION":43,"TANGENT":44,"NORMAL":45,"TEXCOORD_0":46,"TEXCOORD_1":47},"indices":42,"mode":4,"material":0}],"name":"pCylinder213"},{"primitives":[{"attributes":{"POSITION":49,"TANGENT":50,"NORMAL":51,"TEXCOORD_0":52,"TEXCOORD_1":53},"indices":48,"mode":4,"material":0}],"name":"pSphere49"},{"primitives":[{"attributes":{"POSITION":55,"TANGENT":56,"NORMAL":57,"TEXCOORD_0":58,"TEXCOORD_1":59},"indices":54,"mode":4,"material":0}],"name":"pCube97"},{"primitives":[{"attributes":{"POSITION":61,"TANGENT":62,"NORMAL":63,"TEXCOORD_0":64,"TEXCOORD_1":65},"indices":60,"mode":4,"material":0}],"name":"pCube95"},{"primitives":[{"attributes":{"POSITION":67,"TANGENT":68,"NORMAL":69,"TEXCOORD_0":70,"TEXCOORD_1":71},"indices":66,"mode":4,"material":0}],"name":"pCube94"},{"primitives":[{"attributes":{"POSITION":73,"TANGENT":74,"NORMAL":75,"TEXCOORD_0":76,"TEXCOORD_1":77},"indices":72,"mode":4,"material":0}],"name":"pDisc59"},{"primitives":[{"attributes":{"POSITION":79,"TANGENT":80,"NORMAL":81,"TEXCOORD_0":82},"indices":78,"mode":4,"material":0}],"name":"pCylinder214"}],"accessors":[{"bufferView":0,"componentType":5123,"count":378,"type":"SCALAR","name":"accessorIndices"},{"bufferView":1,"componentType":5126,"count":137,"max":[8.329445,39.8849945,55.0204277],"min":[-7.923931,35.1734428,44.87759],"type":"VEC3","name":"accessorPositions"},{"bufferView":2,"componentType":5126,"count":137,"type":"VEC4","name":"accessorTangents"},{"bufferView":1,"byteOffset":1644,"componentType":5126,"count":137,"type":"VEC3","name":"accessorNormals"},{"bufferView":3,"componentType":5126,"count":137,"type":"VEC2","name":"accessorUVs"},{"bufferView":3,"byteOffset":1096,"componentType":5126,"count":137,"type":"VEC2","name":"accessorUV2s"},{"bufferView":0,"byteOffset":756,"componentType":5123,"count":1434,"type":"SCALAR","name":"accessorIndices"},{"bufferView":1,"byteOffset":3288,"componentType":5126,"count":316,"max":[6.098154,49.64055,66.5684738],"min":[-5.69263649,36.5127945,44.42112],"type":"VEC3","name":"accessorPositions"},{"bufferView":2,"byteOffset":2192,"componentType":5126,"count":316,"type":"VEC4","name":"accessorTangents"},{"bufferView":1,"byteOffset":7080,"componentType":5126,"count":316,"type":"VEC3","name":"accessorNormals"},{"bufferView":3,"byteOffset":2192,"componentType":5126,"count":316,"type":"VEC2","name":"accessorUVs"},{"bufferView":3,"byteOffset":4720,"componentType":5126,"count":316,"type":"VEC2","name":"accessorUV2s"},{"bufferView":0,"byteOffset":3624,"componentType":5123,"count":1548,"type":"SCALAR","name":"accessorIndices"},{"bufferView":1,"byteOffset":10872,"componentType":5126,"count":368,"max":[-3.43289185,68.71045,7.109009],"min":[-27.8771973,53.4803467,-7.109009],"type":"VEC3","name":"accessorPositions"},{"bufferView":2,"byteOffset":7248,"componentType":5126,"count":368,"type":"VEC4","name":"accessorTangents"},{"bufferView":1,"byteOffset":15288,"componentType":5126,"count":368,"type":"VEC3","name":"accessorNormals"},{"bufferView":3,"byteOffset":7248,"componentType":5126,"count":368,"type":"VEC2","name":"accessorUVs"},{"bufferView":3,"byteOffset":10192,"componentType":5126,"count":368,"type":"VEC2","name":"accessorUV2s"},{"bufferView":0,"byteOffset":6720,"componentType":5123,"count":396,"type":"SCALAR","name":"accessorIndices"},{"bufferView":1,"byteOffset":19704,"componentType":5126,"count":144,"max":[-0.438937426,64.89316,13.7360287],"min":[-27.3007736,52.9925461,-13.7360287],"type":"VEC3","name":"accessorPositions"},{"bufferView":2,"byteOffset":13136,"componentType":5126,"count":144,"type":"VEC4","name":"accessorTangents"},{"bufferView":1,"byteOffset":21432,"componentType":5126,"count":144,"type":"VEC3","name":"accessorNormals"},{"bufferView":3,"byteOffset":13136,"componentType":5126,"count":144,"type":"VEC2","name":"accessorUVs"},{"bufferView":3,"byteOffset":14288,"componentType":5126,"count":144,"type":"VEC2","name":"accessorUV2s"},{"bufferView":0,"byteOffset":7512,"componentType":5123,"count":60,"type":"SCALAR","name":"accessorIndices"},{"bufferView":1,"byteOffset":23160,"componentType":5126,"count":38,"max":[-49.931694,41.1859169,2.5024333],"min":[-58.4882736,36.2852,-2.50242114],"type":"VEC3","name":"accessorPositions"},{"bufferView":2,"byteOffset":15440,"componentType":5126,"count":38,"type":"VEC4","name":"accessorTangents"},{"bufferView":1,"byteOffset":23616,"componentType":5126,"count":38,"type":"VEC3","name":"accessorNormals"},{"bufferView":3,"byteOffset":15440,"componentType":5126,"count":38,"type":"VEC2","name":"accessorUVs"},{"bufferView":3,"byteOffset":15744,"componentType":5126,"count":38,"type":"VEC2","name":"accessorUV2s"},{"bufferView":0,"byteOffset":7632,"componentType":5123,"count":144,"type":"SCALAR","name":"accessorIndices"},{"bufferView":1,"byteOffset":24072,"componentType":5126,"count":74,"max":[-45.31738,41.2805176,4.20819235],"min":[-53.73375,36.2852058,-4.20818],"type":"VEC3","name":"accessorPositions"},{"bufferView":2,"byteOffset":16048,"componentType":5126,"count":74,"type":"VEC4","name":"accessorTangents"},{"bufferView":1,"byteOffset":24960,"componentType":5126,"count":74,"type":"VEC3","name":"accessorNormals"},{"bufferView":3,"byteOffset":16048,"componentType":5126,"count":74,"type":"VEC2","name":"accessorUVs"},{"bufferView":3,"byteOffset":16640,"componentType":5126,"count":74,"type":"VEC2","name":"accessorUV2s"},{"bufferView":0,"byteOffset":7920,"componentType":5123,"count":1338,"type":"SCALAR","name":"accessorIndices"},{"bufferView":1,"byteOffset":25848,"componentType":5126,"count":297,"max":[-42.7767563,51.915535,5.236169],"min":[-54.53041,41.06701,-5.236157],"type":"VEC3","name":"accessorPositions"},{"bufferView":2,"byteOffset":17232,"componentType":5126,"count":297,"type":"VEC4","name":"accessorTangents"},{"bufferView":1,"byteOffset":29412,"componentType":5126,"count":297,"type":"VEC3","name":"accessorNormals"},{"bufferView":3,"byteOffset":17232,"componentType":5126,"count":297,"type":"VEC2","name":"accessorUVs"},{"bufferView":3,"byteOffset":19608,"componentType":5126,"count":297,"type":"VEC2","name":"accessorUV2s"},{"bufferView":0,"byteOffset":10596,"componentType":5123,"count":288,"type":"SCALAR","name":"accessorIndices"},{"bufferView":1,"byteOffset":32976,"componentType":5126,"count":98,"max":[2.532973,46.6484146,-37.1148567],"min":[-8.957534,45.0180931,-48.6053619],"type":"VEC3","name":"accessorPositions"},{"bufferView":2,"byteOffset":21984,"componentType":5126,"count":98,"type":"VEC4","name":"accessorTangents"},{"bufferView":1,"byteOffset":34152,"componentType":5126,"count":98,"type":"VEC3","name":"accessorNormals"},{"bufferView":3,"byteOffset":21984,"componentType":5126,"count":98,"type":"VEC2","name":"accessorUVs"},{"bufferView":3,"byteOffset":22768,"componentType":5126,"count":98,"type":"VEC2","name":"accessorUV2s"},{"bufferView":0,"byteOffset":11172,"componentType":5123,"count":720,"type":"SCALAR","name":"accessorIndices"},{"bufferView":1,"byteOffset":35328,"componentType":5126,"count":194,"max":[2.068825,55.8123055,-37.9373322],"min":[-8.493385,49.2071037,-50.2599525],"type":"VEC3","name":"accessorPositions"},{"bufferView":2,"byteOffset":23552,"componentType":5126,"count":194,"type":"VEC4","name":"accessorTangents"},{"bufferView":1,"byteOffset":37656,"componentType":5126,"count":194,"type":"VEC3","name":"accessorNormals"},{"bufferView":3,"byteOffset":23552,"componentType":5126,"count":194,"type":"VEC2","name":"accessorUVs"},{"bufferView":3,"byteOffset":25104,"componentType":5126,"count":194,"type":"VEC2","name":"accessorUV2s"},{"bufferView":0,"byteOffset":12612,"componentType":5123,"count":156,"type":"SCALAR","name":"accessorIndices"},{"bufferView":1,"byteOffset":39984,"componentType":5126,"count":64,"max":[-0.689525,46.9603653,-45.42991],"min":[-5.735036,44.265377,-58.0893822],"type":"VEC3","name":"accessorPositions"},{"bufferView":2,"byteOffset":26656,"componentType":5126,"count":64,"type":"VEC4","name":"accessorTangents"},{"bufferView":1,"byteOffset":40752,"componentType":5126,"count":64,"type":"VEC3","name":"accessorNormals"},{"bufferView":3,"byteOffset":26656,"componentType":5126,"count":64,"type":"VEC2","name":"accessorUVs"},{"bufferView":3,"byteOffset":27168,"componentType":5126,"count":64,"type":"VEC2","name":"accessorUV2s"},{"bufferView":0,"byteOffset":12924,"componentType":5123,"count":198,"type":"SCALAR","name":"accessorIndices"},{"bufferView":1,"byteOffset":41520,"componentType":5126,"count":64,"max":[51.6418533,38.18567,1.18420792],"min":[38.98388,35.68053,-11.4737587],"type":"VEC3","name":"accessorPositions"},{"bufferView":2,"byteOffset":27680,"componentType":5126,"count":64,"type":"VEC4","name":"accessorTangents"},{"bufferView":1,"byteOffset":42288,"componentType":5126,"count":64,"type":"VEC3","name":"accessorNormals"},{"bufferView":3,"byteOffset":27680,"componentType":5126,"count":64,"type":"VEC2","name":"accessorUVs"},{"bufferView":3,"byteOffset":28192,"componentType":5126,"count":64,"type":"VEC2","name":"accessorUV2s"},{"bufferView":0,"byteOffset":13320,"componentType":5123,"count":960,"type":"SCALAR","name":"accessorIndices"},{"bufferView":1,"byteOffset":43056,"componentType":5126,"count":350,"max":[51.646904,51.10135,0.273715973],"min":[38.97883,38.48613,-10.5632668],"type":"VEC3","name":"accessorPositions"},{"bufferView":2,"byteOffset":28704,"componentType":5126,"count":350,"type":"VEC4","name":"accessorTangents"},{"bufferView":1,"byteOffset":47256,"componentType":5126,"count":350,"type":"VEC3","name":"accessorNormals"},{"bufferView":3,"byteOffset":28704,"componentType":5126,"count":350,"type":"VEC2","name":"accessorUVs"},{"bufferView":3,"byteOffset":31504,"componentType":5126,"count":350,"type":"VEC2","name":"accessorUV2s"},{"bufferView":0,"byteOffset":15240,"componentType":5123,"count":252,"type":"SCALAR","name":"accessorIndices"},{"bufferView":1,"byteOffset":51456,"componentType":5126,"count":49,"max":[49.9088974,39.7382545,-0.5487436],"min":[40.71683,38.18567,-9.740808],"type":"VEC3","name":"accessorPositions"},{"bufferView":2,"byteOffset":34304,"componentType":5126,"count":49,"type":"VEC4","name":"accessorTangents"},{"bufferView":1,"byteOffset":52044,"componentType":5126,"count":49,"type":"VEC3","name":"accessorNormals"},{"bufferView":3,"byteOffset":34304,"componentType":5126,"count":49,"type":"VEC2","name":"accessorUVs"},{"bufferView":3,"byteOffset":34696,"componentType":5126,"count":49,"type":"VEC2","name":"accessorUV2s"},{"bufferView":0,"byteOffset":15744,"componentType":5123,"count":252,"type":"SCALAR","name":"accessorIndices"},{"bufferView":1,"byteOffset":52632,"componentType":5126,"count":64,"max":[1.0,2.264698,1.85218942],"min":[-1.0,-1.01142144,-0.992910743],"type":"VEC3","name":"accessorPositions"},{"bufferView":2,"byteOffset":35088,"componentType":5126,"count":64,"type":"VEC4","name":"accessorTangents"},{"bufferView":1,"byteOffset":53400,"componentType":5126,"count":64,"type":"VEC3","name":"accessorNormals"},{"bufferView":3,"byteOffset":35088,"componentType":5126,"count":64,"type":"VEC2","name":"accessorUVs"}],"bufferViews":[{"buffer":0,"byteLength":16248,"name":"bufferViewScalar"},{"buffer":0,"byteOffset":16248,"byteLength":54168,"byteStride":12,"name":"bufferViewFloatVec3"},{"buffer":0,"byteOffset":70416,"byteLength":36112,"byteStride":16,"name":"bufferViewFloatVec4"},{"buffer":0,"byteOffset":106528,"byteLength":35600,"byteStride":8,"name":"bufferViewFloatVec2"}],"buffers":[{"uri":"houses_01.bin","byteLength":142128}],"materials":[{"pbrMetallicRoughness":{"baseColorFactor":[0.8,0.8,0.8,1.0],"baseColorTexture":{"index":0,"texCoord":0},"metallicFactor":0.0,"roughnessFactor":0.30625},"emissiveFactor":[0.0,0.0,0.0],"alphaMode":"OPAQUE","name":"Main_mat"}],"textures":[{"sampler":0,"source":0,"name":"colorScheme_gradient.png"}],"images":[{"uri":"colorScheme_gradient.png"}],"samplers":[{"magFilter":9729,"minFilter":9987,"wrapS":10497,"wrapT":10497}]}