{"asset":{"version":"2.0","generator":"babylon.js glTF exporter for Maya 2018 v20190918.9"},"scene":0,"scenes":[{"nodes":[0,22],"extensions":{}}],"nodes":[{"children":[1],"translation":[0.0,0.0,0.0],"rotation":[0.0,0.0,0.0,1.0],"scale":[1.0,1.0,1.0],"name":"G_cosmology1"},{"children":[2,21],"translation":[-0.316312462,-19.3482056,-4.291896],"rotation":[0.0,0.0,0.0,1.0],"scale":[1.0,1.0,1.0],"name":"spaceShip"},{"children":[3,6,13,20],"translation":[6.64194441,-8.724911,31.4313354],"rotation":[0.0,0.0,0.0,1.0],"scale":[0.7192003,0.7192003,0.7192003],"name":"pasted__group29"},{"children":[4,5],"translation":[0.0,0.0,0.0],"rotation":[0.0,0.0,0.0,1.0],"scale":[1.0,1.0,1.0],"name":"pasted__group28"},{"mesh":0,"translation":[0.0,0.0,0.0],"rotation":[0.0,0.0,0.0,1.0],"scale":[1.0,1.0,1.0],"name":"pasted__pCylinder89"},{"mesh":1,"translation":[0.0,0.0,0.0],"rotation":[0.0,0.0,0.0,1.0],"scale":[1.0,1.0,1.0],"name":"pasted__pCube83"},{"children":[7,8,9,10,11,12],"translation":[0.0,0.0,0.0],"rotation":[0.0,0.0,0.0,1.0],"scale":[1.0,1.0,1.0],"name":"pasted__group253"},{"mesh":2,"translation":[0.0,0.0,0.0],"rotation":[0.0,0.0,0.0,1.0],"scale":[1.0,1.0,1.0],"name":"pasted__pCylinder86"},{"mesh":3,"translation":[0.0,0.0,0.0],"rotation":[0.0,0.0,0.0,1.0],"scale":[1.0,1.0,1.0],"name":"pasted__pCylinder87"},{"mesh":4,"translation":[0.0,0.0,0.0],"rotation":[0.0,0.0,0.0,1.0],"scale":[1.0,1.0,1.0],"name":"pasted__pCylinder88"},{"mesh":5,"translation":[0.0,0.0,0.0],"rotation":[0.0,0.0,0.0,1.0],"scale":[1.0,1.0,1.0],"name":"pasted__pCube84"},{"mesh":6,"translation":[0.0,0.0,0.0],"rotation":[0.0,0.0,0.0,1.0],"scale":[1.0,1.0,1.0],"name":"pasted__pCube85"},{"mesh":7,"translation":[0.0,0.0,0.0],"rotation":[0.0,0.0,0.0,1.0],"scale":[1.0,1.0,1.0],"name":"pasted__pCylinder91"},{"children":[14,15,16,17,18,19],"translation":[0.0,0.0,0.0],"rotation":[0.0,0.0,0.0,1.0],"scale":[1.0,1.0,1.0],"name":"pasted__group254"},{"mesh":8,"translation":[0.0,0.0,0.0],"rotation":[0.0,0.0,0.0,1.0],"scale":[1.0,1.0,1.0],"name":"pasted__pCylinder86 (1)"},{"mesh":9,"translation":[0.0,0.0,0.0],"rotation":[0.0,0.0,0.0,1.0],"scale":[1.0,1.0,1.0],"name":"pasted__pCylinder87 (1)"},{"mesh":10,"translation":[0.0,0.0,0.0],"rotation":[0.0,0.0,0.0,1.0],"scale":[1.0,1.0,1.0],"name":"pasted__pCylinder88 (1)"},{"mesh":11,"translation":[0.0,0.0,0.0],"rotation":[0.0,0.0,0.0,1.0],"scale":[1.0,1.0,1.0],"name":"pasted__pCube84 (1)"},{"mesh":12,"translation":[0.0,0.0,0.0],"rotation":[0.0,0.0,0.0,1.0],"scale":[1.0,1.0,1.0],"name":"pasted__pCube85 (1)"},{"mesh":13,"translation":[0.0,0.0,0.0],"rotation":[0.0,0.0,0.0,1.0],"scale":[1.0,1.0,1.0],"name":"pasted__pCylinder91 (1)"},{"mesh":14,"translation":[0.0,0.0,0.0],"rotation":[0.0,0.0,0.0,1.0],"scale":[1.0,1.0,1.0],"name":"pasted__pCylinder84"},{"mesh":15,"translation":[0.0,0.0,-3.09849334],"rotation":[0.0,0.0,0.0,1.0],"scale":[1.0,1.0,1.0],"name":"pasted__polySurface254"},{"translation":[0.0,0.0,0.0],"rotation":[0.0,0.0,0.0,1.0],"scale":[1.0,1.0,1.0],"name":"Default light"}],"meshes":[{"primitives":[{"attributes":{"POSITION":1,"TANGENT":2,"NORMAL":3,"TEXCOORD_0":4,"TEXCOORD_1":5},"indices":0,"mode":4,"material":0}],"name":"pasted__pCylinder89"},{"primitives":[{"attributes":{"POSITION":7,"TANGENT":8,"NORMAL":9,"TEXCOORD_0":10,"TEXCOORD_1":11},"indices":6,"mode":4,"material":0}],"name":"pasted__pCube83"},{"primitives":[{"attributes":{"POSITION":13,"TANGENT":14,"NORMAL":15,"TEXCOORD_0":16,"TEXCOORD_1":17},"indices":12,"mode":4,"material":0}],"name":"pasted__pCylinder86"},{"primitives":[{"attributes":{"POSITION":19,"TANGENT":20,"NORMAL":21,"TEXCOORD_0":22,"TEXCOORD_1":23},"indices":18,"mode":4,"material":0}],"name":"pasted__pCylinder87"},{"primitives":[{"attributes":{"POSITION":25,"TANGENT":26,"NORMAL":27,"TEXCOORD_0":28,"TEXCOORD_1":29},"indices":24,"mode":4,"material":0}],"name":"pasted__pCylinder88"},{"primitives":[{"attributes":{"POSITION":31,"TANGENT":32,"NORMAL":33,"TEXCOORD_0":34,"TEXCOORD_1":35},"indices":30,"mode":4,"material":0}],"name":"pasted__pCube84"},{"primitives":[{"attributes":{"POSITION":37,"TANGENT":38,"NORMAL":39,"TEXCOORD_0":40,"TEXCOORD_1":41},"indices":36,"mode":4,"material":0}],"name":"pasted__pCube85"},{"primitives":[{"attributes":{"POSITION":43,"TANGENT":44,"NORMAL":45,"TEXCOORD_0":46,"TEXCOORD_1":47},"indices":42,"mode":4,"material":0}],"name":"pasted__pCylinder91"},{"primitives":[{"attributes":{"POSITION":49,"TANGENT":50,"NORMAL":51,"TEXCOORD_0":52,"TEXCOORD_1":53},"indices":48,"mode":4,"material":0}],"name":"pasted__pCylinder86"},{"primitives":[{"attributes":{"POSITION":55,"TANGENT":56,"NORMAL":57,"TEXCOORD_0":58,"TEXCOORD_1":59},"indices":54,"mode":4,"material":0}],"name":"pasted__pCylinder87"},{"primitives":[{"attributes":{"POSITION":61,"TANGENT":62,"NORMAL":63,"TEXCOORD_0":64,"TEXCOORD_1":65},"indices":60,"mode":4,"material":0}],"name":"pasted__pCylinder88"},{"primitives":[{"attributes":{"POSITION":67,"TANGENT":68,"NORMAL":69,"TEXCOORD_0":70,"TEXCOORD_1":71},"indices":66,"mode":4,"material":0}],"name":"pasted__pCube84"},{"primitives":[{"attributes":{"POSITION":73,"TANGENT":74,"NORMAL":75,"TEXCOORD_0":76,"TEXCOORD_1":77},"indices":72,"mode":4,"material":0}],"name":"pasted__pCube85"},{"primitives":[{"attributes":{"POSITION":79,"TANGENT":80,"NORMAL":81,"TEXCOORD_0":82,"TEXCOORD_1":83},"indices":78,"mode":4,"material":0}],"name":"pasted__pCylinder91"},{"primitives":[{"attributes":{"POSITION":85,"TANGENT":86,"NORMAL":87,"TEXCOORD_0":88,"TEXCOORD_1":89},"indices":84,"mode":4,"material":0}],"name":"pasted__pCylinder84"},{"primitives":[{"attributes":{"POSITION":91,"TANGENT":92,"NORMAL":93,"TEXCOORD_0":94,"TEXCOORD_1":95},"indices":90,"mode":4,"material":1}],"name":"pasted__polySurface254"}],"accessors":[{"bufferView":0,"componentType":5123,"count":168,"type":"SCALAR","name":"accessorIndices"},{"bufferView":1,"componentType":5126,"count":58,"max":[26.254034,-16.4327984,122.194855],"min":[24.61877,-19.0565681,118.134132],"type":"VEC3","name":"accessorPositions"},{"bufferView":2,"componentType":5126,"count":58,"type":"VEC4","name":"accessorTangents"},{"bufferView":1,"byteOffset":696,"componentType":5126,"count":58,"type":"VEC3","name":"accessorNormals"},{"bufferView":3,"componentType":5126,"count":58,"type":"VEC2","name":"accessorUVs"},{"bufferView":3,"byteOffset":464,"componentType":5126,"count":58,"type":"VEC2","name":"accessorUV2s"},{"bufferView":0,"byteOffset":336,"componentType":5123,"count":84,"type":"SCALAR","name":"accessorIndices"},{"bufferView":1,"byteOffset":1392,"componentType":5126,"count":36,"max":[21.38776,-24.8593559,99.45496],"min":[17.5706787,-34.565403,83.75016],"type":"VEC3","name":"accessorPositions"},{"bufferView":2,"byteOffset":928,"componentType":5126,"count":36,"type":"VEC4","name":"accessorTangents"},{"bufferView":1,"byteOffset":1824,"componentType":5126,"count":36,"type":"VEC3","name":"accessorNormals"},{"bufferView":3,"byteOffset":928,"componentType":5126,"count":36,"type":"VEC2","name":"accessorUVs"},{"bufferView":3,"byteOffset":1216,"componentType":5126,"count":36,"type":"VEC2","name":"accessorUV2s"},{"bufferView":0,"byteOffset":504,"componentType":5123,"count":504,"type":"SCALAR","name":"accessorIndices"},{"bufferView":1,"byteOffset":2256,"componentType":5126,"count":100,"max":[30.8746338,-21.8639526,110.291206],"min":[24.7207642,-35.7973633,88.79359],"type":"VEC3","name":"accessorPositions"},{"bufferView":2,"byteOffset":1504,"componentType":5126,"count":100,"type":"VEC4","name":"accessorTangents"},{"bufferView":1,"byteOffset":3456,"componentType":5126,"count":100,"type":"VEC3","name":"accessorNormals"},{"bufferView":3,"byteOffset":1504,"componentType":5126,"count":100,"type":"VEC2","name":"accessorUVs"},{"bufferView":3,"byteOffset":2304,"componentType":5126,"count":100,"type":"VEC2","name":"accessorUV2s"},{"bufferView":0,"byteOffset":1512,"componentType":5123,"count":384,"type":"SCALAR","name":"accessorIndices"},{"bufferView":1,"byteOffset":4656,"componentType":5126,"count":81,"max":[31.55188,-22.9529419,107.671822],"min":[26.8068848,-27.8660278,103.001595],"type":"VEC3","name":"accessorPositions"},{"bufferView":2,"byteOffset":3104,"componentType":5126,"count":81,"type":"VEC4","name":"accessorTangents"},{"bufferView":1,"byteOffset":5628,"componentType":5126,"count":81,"type":"VEC3","name":"accessorNormals"},{"bufferView":3,"byteOffset":3104,"componentType":5126,"count":81,"type":"VEC2","name":"accessorUVs"},{"bufferView":3,"byteOffset":3752,"componentType":5126,"count":81,"type":"VEC2","name":"accessorUV2s"},{"bufferView":0,"byteOffset":2280,"componentType":5123,"count":384,"type":"SCALAR","name":"accessorIndices"},{"bufferView":1,"byteOffset":6600,"componentType":5126,"count":81,"max":[30.4349365,-23.7194214,105.413368],"min":[26.1146851,-27.9760742,101.584023],"type":"VEC3","name":"accessorPositions"},{"bufferView":2,"byteOffset":4400,"componentType":5126,"count":81,"type":"VEC4","name":"accessorTangents"},{"bufferView":1,"byteOffset":7572,"componentType":5126,"count":81,"type":"VEC3","name":"accessorNormals"},{"bufferView":3,"byteOffset":4400,"componentType":5126,"count":81,"type":"VEC2","name":"accessorUVs"},{"bufferView":3,"byteOffset":5048,"componentType":5126,"count":81,"type":"VEC2","name":"accessorUV2s"},{"bufferView":0,"byteOffset":3048,"componentType":5123,"count":84,"type":"SCALAR","name":"accessorIndices"},{"bufferView":1,"byteOffset":8544,"componentType":5126,"count":36,"max":[25.0180588,-26.9538269,99.832634],"min":[20.0918541,-35.4661331,86.17953],"type":"VEC3","name":"accessorPositions"},{"bufferView":2,"byteOffset":5696,"componentType":5126,"count":36,"type":"VEC4","name":"accessorTangents"},{"bufferView":1,"byteOffset":8976,"componentType":5126,"count":36,"type":"VEC3","name":"accessorNormals"},{"bufferView":3,"byteOffset":5696,"componentType":5126,"count":36,"type":"VEC2","name":"accessorUVs"},{"bufferView":3,"byteOffset":5984,"componentType":5126,"count":36,"type":"VEC2","name":"accessorUV2s"},{"bufferView":0,"byteOffset":3216,"componentType":5123,"count":84,"type":"SCALAR","name":"accessorIndices"},{"bufferView":1,"byteOffset":9408,"componentType":5126,"count":36,"max":[25.42266,-30.0256634,101.6444],"min":[20.3604145,-38.55147,88.39413],"type":"VEC3","name":"accessorPositions"},{"bufferView":2,"byteOffset":6272,"componentType":5126,"count":36,"type":"VEC4","name":"accessorTangents"},{"bufferView":1,"byteOffset":9840,"componentType":5126,"count":36,"type":"VEC3","name":"accessorNormals"},{"bufferView":3,"byteOffset":6272,"componentType":5126,"count":36,"type":"VEC2","name":"accessorUVs"},{"bufferView":3,"byteOffset":6560,"componentType":5126,"count":36,"type":"VEC2","name":"accessorUV2s"},{"bufferView":0,"byteOffset":3384,"componentType":5123,"count":312,"type":"SCALAR","name":"accessorIndices"},{"bufferView":1,"byteOffset":10272,"componentType":5126,"count":90,"max":[28.7640915,-26.124939,109.713135],"min":[26.0766811,-31.64164,101.1078],"type":"VEC3","name":"accessorPositions"},{"bufferView":2,"byteOffset":6848,"componentType":5126,"count":90,"type":"VEC4","name":"accessorTangents"},{"bufferView":1,"byteOffset":11352,"componentType":5126,"count":90,"type":"VEC3","name":"accessorNormals"},{"bufferView":3,"byteOffset":6848,"componentType":5126,"count":90,"type":"VEC2","name":"accessorUVs"},{"bufferView":3,"byteOffset":7568,"componentType":5126,"count":90,"type":"VEC2","name":"accessorUV2s"},{"bufferView":0,"byteOffset":4008,"componentType":5123,"count":504,"type":"SCALAR","name":"accessorIndices"},{"bufferView":1,"byteOffset":12432,"componentType":5126,"count":100,"max":[19.3979588,-21.86393,112.460953],"min":[12.6568756,-35.7973557,91.2524261],"type":"VEC3","name":"accessorPositions"},{"bufferView":2,"byteOffset":8288,"componentType":5126,"count":100,"type":"VEC4","name":"accessorTangents"},{"bufferView":1,"byteOffset":13632,"componentType":5126,"count":100,"type":"VEC3","name":"accessorNormals"},{"bufferView":3,"byteOffset":8288,"componentType":5126,"count":100,"type":"VEC2","name":"accessorUVs"},{"bufferView":3,"byteOffset":9088,"componentType":5126,"count":100,"type":"VEC2","name":"accessorUV2s"},{"bufferView":0,"byteOffset":5016,"componentType":5123,"count":384,"type":"SCALAR","name":"accessorIndices"},{"bufferView":1,"byteOffset":14832,"componentType":5126,"count":81,"max":[18.57507,-22.9529419,110.255142],"min":[13.9359531,-27.8660049,105.632294],"type":"VEC3","name":"accessorPositions"},{"bufferView":2,"byteOffset":9888,"componentType":5126,"count":81,"type":"VEC4","name":"accessorTangents"},{"bufferView":1,"byteOffset":15804,"componentType":5126,"count":81,"type":"VEC3","name":"accessorNormals"},{"bufferView":3,"byteOffset":9888,"componentType":5126,"count":81,"type":"VEC2","name":"accessorUVs"},{"bufferView":3,"byteOffset":10536,"componentType":5126,"count":81,"type":"VEC2","name":"accessorUV2s"},{"bufferView":0,"byteOffset":5784,"componentType":5123,"count":384,"type":"SCALAR","name":"accessorIndices"},{"bufferView":1,"byteOffset":16776,"componentType":5126,"count":81,"max":[18.1714268,-23.7193985,107.766068],"min":[13.8652611,-27.9760513,104.3835],"type":"VEC3","name":"accessorPositions"},{"bufferView":2,"byteOffset":11184,"componentType":5126,"count":81,"type":"VEC4","name":"accessorTangents"},{"bufferView":1,"byteOffset":17748,"componentType":5126,"count":81,"type":"VEC3","name":"accessorNormals"},{"bufferView":3,"byteOffset":11184,"componentType":5126,"count":81,"type":"VEC2","name":"accessorUVs"},{"bufferView":3,"byteOffset":11832,"componentType":5126,"count":81,"type":"VEC2","name":"accessorUV2s"},{"bufferView":0,"byteOffset":6552,"componentType":5123,"count":84,"type":"SCALAR","name":"accessorIndices"},{"bufferView":1,"byteOffset":18720,"componentType":5126,"count":36,"max":[18.591486,-26.95388,101.183777],"min":[14.4462967,-35.4660721,87.79683],"type":"VEC3","name":"accessorPositions"},{"bufferView":2,"byteOffset":12480,"componentType":5126,"count":36,"type":"VEC4","name":"accessorTangents"},{"bufferView":1,"byteOffset":19152,"componentType":5126,"count":36,"type":"VEC3","name":"accessorNormals"},{"bufferView":3,"byteOffset":12480,"componentType":5126,"count":36,"type":"VEC2","name":"accessorUVs"},{"bufferView":3,"byteOffset":12768,"componentType":5126,"count":36,"type":"VEC2","name":"accessorUV2s"},{"bufferView":0,"byteOffset":6720,"componentType":5123,"count":84,"type":"SCALAR","name":"accessorIndices"},{"bufferView":1,"byteOffset":19584,"componentType":5126,"count":36,"max":[18.8285484,-30.0256634,102.831657],"min":[14.8959951,-38.55147,89.63221],"type":"VEC3","name":"accessorPositions"},{"bufferView":2,"byteOffset":13056,"componentType":5126,"count":36,"type":"VEC4","name":"accessorTangents"},{"bufferView":1,"byteOffset":20016,"componentType":5126,"count":36,"type":"VEC3","name":"accessorNormals"},{"bufferView":3,"byteOffset":13056,"componentType":5126,"count":36,"type":"VEC2","name":"accessorUVs"},{"bufferView":3,"byteOffset":13344,"componentType":5126,"count":36,"type":"VEC2","name":"accessorUV2s"},{"bufferView":0,"byteOffset":6888,"componentType":5123,"count":312,"type":"SCALAR","name":"accessorIndices"},{"bufferView":1,"byteOffset":20448,"componentType":5126,"count":90,"max":[19.0863533,-26.124939,111.749023],"min":[16.4614086,-31.64164,103.143555],"type":"VEC3","name":"accessorPositions"},{"bufferView":2,"byteOffset":13632,"componentType":5126,"count":90,"type":"VEC4","name":"accessorTangents"},{"bufferView":1,"byteOffset":21528,"componentType":5126,"count":90,"type":"VEC3","name":"accessorNormals"},{"bufferView":3,"byteOffset":13632,"componentType":5126,"count":90,"type":"VEC2","name":"accessorUVs"},{"bufferView":3,"byteOffset":14352,"componentType":5126,"count":90,"type":"VEC2","name":"accessorUV2s"},{"bufferView":0,"byteOffset":7512,"componentType":5123,"count":684,"type":"SCALAR","name":"accessorIndices"},{"bufferView":1,"byteOffset":22608,"componentType":5126,"count":182,"max":[29.0647583,-16.01062,118.903564],"min":[16.8110352,-37.8387451,87.70044],"type":"VEC3","name":"accessorPositions"},{"bufferView":2,"byteOffset":15072,"componentType":5126,"count":182,"type":"VEC4","name":"accessorTangents"},{"bufferView":1,"byteOffset":24792,"componentType":5126,"count":182,"type":"VEC3","name":"accessorNormals"},{"bufferView":3,"byteOffset":15072,"componentType":5126,"count":182,"type":"VEC2","name":"accessorUVs"},{"bufferView":3,"byteOffset":16528,"componentType":5126,"count":182,"type":"VEC2","name":"accessorUV2s"},{"bufferView":0,"byteOffset":8880,"componentType":5123,"count":501,"type":"SCALAR","name":"accessorIndices"},{"bufferView":1,"byteOffset":26976,"componentType":5126,"count":132,"max":[28.18988,-34.03784,112.865479],"min":[11.6876221,-61.1732254,51.96167],"type":"VEC3","name":"accessorPositions"},{"bufferView":2,"byteOffset":17984,"componentType":5126,"count":132,"type":"VEC4","name":"accessorTangents"},{"bufferView":1,"byteOffset":28560,"componentType":5126,"count":132,"type":"VEC3","name":"accessorNormals"},{"bufferView":3,"byteOffset":17984,"componentType":5126,"count":132,"type":"VEC2","name":"accessorUVs"},{"bufferView":3,"byteOffset":19040,"componentType":5126,"count":132,"type":"VEC2","name":"accessorUV2s"}],"bufferViews":[{"buffer":0,"byteLength":9884,"name":"bufferViewScalar"},{"buffer":0,"byteOffset":9884,"byteLength":30144,"byteStride":12,"name":"bufferViewFloatVec3"},{"buffer":0,"byteOffset":40028,"byteLength":20096,"byteStride":16,"name":"bufferViewFloatVec4"},{"buffer":0,"byteOffset":60124,"byteLength":20096,"byteStride":8,"name":"bufferViewFloatVec2"}],"buffers":[{"uri":"spaceship_01.bin","byteLength":80220}],"materials":[{"pbrMetallicRoughness":{"baseColorFactor":[1.0,1.0,1.0,1.0],"baseColorTexture":{"index":0,"texCoord":0},"metallicFactor":0.0,"roughnessFactor":0.201679826},"emissiveFactor":[0.0,0.0,0.0],"alphaMode":"OPAQUE","name":"pasted__metal"},{"pbrMetallicRoughness":{"baseColorFactor":[0.8,0.8,0.8,1.0],"baseColorTexture":{"index":0,"texCoord":0},"metallicFactor":0.0,"roughnessFactor":0.2},"emissiveFactor":[0.0,0.0,0.0],"alphaMode":"OPAQUE","name":"pasted__aiMain"}],"textures":[{"sampler":0,"source":0,"name":"coloursceme_Lezoo4.png"}],"images":[{"uri":"coloursceme_Lezoo4.png"}],"samplers":[{"magFilter":9729,"minFilter":9987,"wrapS":10497,"wrapT":10497}]}