{"asset":{"version":"2.0","generator":"babylon.js glTF exporter for Maya 2018 v20190918.9"},"scene":0,"scenes":[{"nodes":[0,2],"extensions":{}}],"nodes":[{"children":[1],"translation":[0.0,0.0,0.0],"rotation":[0.0,0.0,0.0,1.0],"scale":[1.0,1.0,1.0],"name":"G_cosmology1"},{"mesh":0,"translation":[0.0,0.0,0.0],"rotation":[0.0,0.0,0.0,1.0],"scale":[1.0,1.0,1.0],"name":"spindle"},{"translation":[0.0,0.0,0.0],"rotation":[0.0,0.0,0.0,1.0],"scale":[1.0,1.0,1.0],"name":"Default light"}],"meshes":[{"primitives":[{"attributes":{"POSITION":1,"TANGENT":2,"NORMAL":3,"TEXCOORD_0":4},"indices":0,"mode":4,"material":0}],"name":"spindle"}],"accessors":[{"bufferView":0,"componentType":5123,"count":108,"type":"SCALAR","name":"accessorIndices"},{"bufferView":1,"componentType":5126,"count":35,"max":[0.493069768,135.7468,0.427010924],"min":[-0.493069768,63.1400223,-0.427010953],"type":"VEC3","name":"accessorPositions"},{"bufferView":2,"componentType":5126,"count":35,"type":"VEC4","name":"accessorTangents"},{"bufferView":1,"byteOffset":420,"componentType":5126,"count":35,"type":"VEC3","name":"accessorNormals"},{"bufferView":3,"componentType":5126,"count":35,"type":"VEC2","name":"accessorUVs"}],"bufferViews":[{"buffer":0,"byteLength":216,"name":"bufferViewScalar"},{"buffer":0,"byteOffset":216,"byteLength":840,"byteStride":12,"name":"bufferViewFloatVec3"},{"buffer":0,"byteOffset":1056,"byteLength":560,"byteStride":16,"name":"bufferViewFloatVec4"},{"buffer":0,"byteOffset":1616,"byteLength":280,"byteStride":8,"name":"bufferViewFloatVec2"}],"buffers":[{"uri":"spindle_01.bin","byteLength":1896}],"materials":[{"pbrMetallicRoughness":{"baseColorFactor":[0.8,0.8,0.8,1.0],"baseColorTexture":{"index":0,"texCoord":0},"metallicFactor":0.0,"roughnessFactor":0.30625},"emissiveFactor":[0.0,0.0,0.0],"alphaMode":"OPAQUE","name":"Main_mat"}],"textures":[{"sampler":0,"source":0,"name":"colorScheme_gradient.png"}],"images":[{"uri":"colorScheme_gradient.png"}],"samplers":[{"magFilter":9729,"minFilter":9987,"wrapS":10497,"wrapT":10497}]}